<svg width="23" height="22" viewBox="0 0 23 22" fill="none" xmlns="http://www.w3.org/2000/svg">
<mask id="path-1-inside-1_3_1280" fill="white">
<path d="M14.3152 10.6106C14.1476 10.6106 13.9919 10.5645 13.8537 10.4904V10.4923C13.8537 10.756 13.7512 11.0037 13.5652 11.1891C13.3793 11.3751 13.1318 11.4776 12.8684 11.4776C12.6984 11.4776 12.5408 11.4304 12.401 11.3543C12.3869 11.5955 12.2905 11.821 12.1185 11.9932C11.9325 12.1792 11.685 12.2817 11.4215 12.2817C10.8978 12.2817 10.4726 11.8701 10.442 11.3541C10.2799 11.4417 10.0967 11.4876 9.90782 11.4755C9.3927 11.4417 8.98929 10.9966 8.98929 10.462V6.03036L8.48467 6.9046C8.29247 7.23897 7.93269 7.44658 7.54532 7.44658C7.35656 7.44658 7.1701 7.39706 7.00497 7.30243C6.79932 7.18321 6.65222 6.99184 6.59105 6.76288C6.52955 6.53379 6.56137 6.29419 6.68026 6.08886C6.68042 6.08886 8.33133 3.22996 8.43205 3.05435C8.44402 3.02795 8.47813 2.95137 8.50716 2.8861C8.53487 2.82378 8.55865 2.75982 8.58144 2.69554C9.07931 1.28998 10.3121 0.416874 11.7988 0.416874C13.7295 0.416874 15.3002 2.12009 15.3002 4.21365L15.3004 9.62514C15.3004 9.88851 15.198 10.136 15.0122 10.3221C14.8263 10.5081 14.5788 10.6106 14.3151 10.6106L14.3152 10.6106ZM11.7988 0.940417C10.5213 0.940417 9.50309 1.66201 9.07492 2.87063C9.04753 2.94737 9.019 3.02412 8.98571 3.0989C8.88911 3.31554 8.88911 3.31554 8.86189 3.34669L8.85828 3.34358C8.72348 3.59793 8.32301 4.29145 7.13358 6.35088C7.08471 6.43534 7.07175 6.53341 7.09668 6.62721C7.12193 6.72101 7.18245 6.80006 7.26625 6.84843C7.52634 6.99783 7.88254 6.9014 8.03078 6.64311L9.02442 4.92282C9.08378 4.82032 9.20382 4.76998 9.31895 4.80113C9.43341 4.8318 9.51295 4.93561 9.51295 5.05401V10.4621C9.51295 10.7173 9.70547 10.9375 9.94213 10.9531C10.0786 10.9603 10.2058 10.9146 10.3014 10.8191C10.3884 10.7322 10.4362 10.6164 10.4362 10.4926V6.95564C10.4362 6.811 10.5535 6.69374 10.6981 6.69374C10.8428 6.69374 10.96 6.81084 10.96 6.95564L10.9599 11.2966C10.9599 11.5511 11.167 11.7582 11.4215 11.7582C11.5452 11.7582 11.6613 11.7103 11.7483 11.6234C11.8353 11.5363 11.8831 11.4202 11.8831 11.2966V6.95564C11.8831 6.811 12.0002 6.69374 12.145 6.69374C12.2897 6.69374 12.4069 6.81083 12.4069 6.95564L12.4068 10.4519V10.4926C12.4068 10.747 12.6139 10.9541 12.8686 10.9541C12.9921 10.9541 13.1078 10.906 13.1954 10.8188C13.2823 10.732 13.3302 10.6163 13.3302 10.4924V6.95545C13.3302 6.81081 13.4473 6.69356 13.5921 6.69356C13.7368 6.69356 13.854 6.81065 13.854 6.95545L13.8537 9.62526C13.8537 9.87994 14.0608 10.0871 14.3151 10.0871C14.439 10.0871 14.5547 10.039 14.6417 9.95227C14.7289 9.86502 14.7766 9.74891 14.7766 9.62526L14.7768 4.21377C14.7768 2.40905 13.4409 0.940471 11.7988 0.940471L11.7988 0.940417Z"/>
</mask>
<path d="M14.3152 10.6106C14.1476 10.6106 13.9919 10.5645 13.8537 10.4904V10.4923C13.8537 10.756 13.7512 11.0037 13.5652 11.1891C13.3793 11.3751 13.1318 11.4776 12.8684 11.4776C12.6984 11.4776 12.5408 11.4304 12.401 11.3543C12.3869 11.5955 12.2905 11.821 12.1185 11.9932C11.9325 12.1792 11.685 12.2817 11.4215 12.2817C10.8978 12.2817 10.4726 11.8701 10.442 11.3541C10.2799 11.4417 10.0967 11.4876 9.90782 11.4755C9.3927 11.4417 8.98929 10.9966 8.98929 10.462V6.03036L8.48467 6.9046C8.29247 7.23897 7.93269 7.44658 7.54532 7.44658C7.35656 7.44658 7.1701 7.39706 7.00497 7.30243C6.79932 7.18321 6.65222 6.99184 6.59105 6.76288C6.52955 6.53379 6.56137 6.29419 6.68026 6.08886C6.68042 6.08886 8.33133 3.22996 8.43205 3.05435C8.44402 3.02795 8.47813 2.95137 8.50716 2.8861C8.53487 2.82378 8.55865 2.75982 8.58144 2.69554C9.07931 1.28998 10.3121 0.416874 11.7988 0.416874C13.7295 0.416874 15.3002 2.12009 15.3002 4.21365L15.3004 9.62514C15.3004 9.88851 15.198 10.136 15.0122 10.3221C14.8263 10.5081 14.5788 10.6106 14.3151 10.6106L14.3152 10.6106ZM11.7988 0.940417C10.5213 0.940417 9.50309 1.66201 9.07492 2.87063C9.04753 2.94737 9.019 3.02412 8.98571 3.0989C8.88911 3.31554 8.88911 3.31554 8.86189 3.34669L8.85828 3.34358C8.72348 3.59793 8.32301 4.29145 7.13358 6.35088C7.08471 6.43534 7.07175 6.53341 7.09668 6.62721C7.12193 6.72101 7.18245 6.80006 7.26625 6.84843C7.52634 6.99783 7.88254 6.9014 8.03078 6.64311L9.02442 4.92282C9.08378 4.82032 9.20382 4.76998 9.31895 4.80113C9.43341 4.8318 9.51295 4.93561 9.51295 5.05401V10.4621C9.51295 10.7173 9.70547 10.9375 9.94213 10.9531C10.0786 10.9603 10.2058 10.9146 10.3014 10.8191C10.3884 10.7322 10.4362 10.6164 10.4362 10.4926V6.95564C10.4362 6.811 10.5535 6.69374 10.6981 6.69374C10.8428 6.69374 10.96 6.81084 10.96 6.95564L10.9599 11.2966C10.9599 11.5511 11.167 11.7582 11.4215 11.7582C11.5452 11.7582 11.6613 11.7103 11.7483 11.6234C11.8353 11.5363 11.8831 11.4202 11.8831 11.2966V6.95564C11.8831 6.811 12.0002 6.69374 12.145 6.69374C12.2897 6.69374 12.4069 6.81083 12.4069 6.95564L12.4068 10.4519V10.4926C12.4068 10.747 12.6139 10.9541 12.8686 10.9541C12.9921 10.9541 13.1078 10.906 13.1954 10.8188C13.2823 10.732 13.3302 10.6163 13.3302 10.4924V6.95545C13.3302 6.81081 13.4473 6.69356 13.5921 6.69356C13.7368 6.69356 13.854 6.81065 13.854 6.95545L13.8537 9.62526C13.8537 9.87994 14.0608 10.0871 14.3151 10.0871C14.439 10.0871 14.5547 10.039 14.6417 9.95227C14.7289 9.86502 14.7766 9.74891 14.7766 9.62526L14.7768 4.21377C14.7768 2.40905 13.4409 0.940471 11.7988 0.940471L11.7988 0.940417Z" fill="#4CAF4F"/>
<path d="M14.3152 10.6106V9.68248H17.5942L14.8016 11.401L14.3152 10.6106ZM13.8537 10.4904H12.9256V8.93963L14.2923 9.67243L13.8537 10.4904ZM13.5652 11.1891L12.909 10.5329L12.9098 10.532L13.5652 11.1891ZM12.401 11.3543L11.4745 11.3001L11.5599 9.83945L12.8449 10.5392L12.401 11.3543ZM12.1185 11.9932L12.7751 12.6491L12.7747 12.6495L12.1185 11.9932ZM10.442 11.3541L10.0007 10.5377L11.282 9.84511L11.3684 11.2991L10.442 11.3541ZM9.90782 11.4755L9.84832 12.4017L9.84708 12.4016L9.90782 11.4755ZM8.98929 6.03036L8.18549 5.56639L9.91738 2.56598V6.03036H8.98929ZM8.48467 6.9046L7.68002 6.44209L7.68087 6.44063L8.48467 6.9046ZM7.00497 7.30243L6.54354 8.10771L6.53948 8.10535L7.00497 7.30243ZM6.59105 6.76288L7.48741 6.52227L7.48769 6.52332L6.59105 6.76288ZM6.68026 6.08886L5.87709 5.6238L6.1452 5.16077H6.68026V6.08886ZM8.43205 3.05435L9.27731 3.43761L9.25909 3.4778L9.23713 3.51608L8.43205 3.05435ZM8.50716 2.8861L7.65914 2.50897L7.65915 2.50896L8.50716 2.8861ZM8.58144 2.69554L9.45628 3.00541L9.45619 3.00566L8.58144 2.69554ZM15.3002 4.21365L14.3721 4.21368V4.21365H15.3002ZM15.3004 9.62514L16.2285 9.62511V9.62514H15.3004ZM15.0122 10.3221L15.6691 10.9778L15.6685 10.9784L15.0122 10.3221ZM14.3151 10.6106V11.5387H11.0361L13.8287 9.82017L14.3151 10.6106ZM11.7988 0.940417V0.0123243H13.0292L12.6912 1.19538L11.7988 0.940417ZM9.07492 2.87063L9.94974 3.18055L9.94903 3.18254L9.07492 2.87063ZM8.98571 3.0989L9.83358 3.47636L9.83336 3.47685L8.98571 3.0989ZM8.86189 3.34669L9.56079 3.95735L8.95364 4.65223L8.25527 4.0491L8.86189 3.34669ZM8.85828 3.34358L8.03824 2.90898L8.58356 1.88002L9.4649 2.64118L8.85828 3.34358ZM7.13358 6.35088L7.93726 6.81505L7.93687 6.81572L7.13358 6.35088ZM7.09668 6.62721L6.20049 6.86848L6.19972 6.86558L7.09668 6.62721ZM7.26625 6.84843L6.80398 7.65321L6.80225 7.65221L7.26625 6.84843ZM8.03078 6.64311L7.22584 6.18113L7.22712 6.17892L8.03078 6.64311ZM9.02442 4.92282L8.22075 4.45862L8.22131 4.45765L9.02442 4.92282ZM9.31895 4.80113L9.07877 5.69762L9.07647 5.69699L9.31895 4.80113ZM9.94213 10.9531L9.89311 11.88L9.88118 11.8792L9.94213 10.9531ZM10.3014 10.8191L10.9577 11.4754L10.9571 11.476L10.3014 10.8191ZM10.96 6.95564H11.8881V6.95568L10.96 6.95564ZM10.9599 11.2966H10.0318V11.2966L10.9599 11.2966ZM11.7483 11.6234L12.4052 12.2791L12.404 12.2803L11.7483 11.6234ZM12.4069 6.95564H13.335V6.95568L12.4069 6.95564ZM12.4068 10.4519H11.4787V10.4519L12.4068 10.4519ZM13.1954 10.8188L13.8511 11.4757L13.8504 11.4763L13.1954 10.8188ZM13.854 6.95545H14.7821V6.95557L13.854 6.95545ZM13.8537 9.62526H12.9256V9.62515L13.8537 9.62526ZM14.6417 9.95227L15.2979 10.6085L15.2973 10.6091L14.6417 9.95227ZM14.7766 9.62526H13.8485V9.62524L14.7766 9.62526ZM14.7768 4.21377H15.7049V4.2138L14.7768 4.21377ZM11.7988 0.940471V1.86856H10.5684L10.9064 0.685504L11.7988 0.940471ZM14.3152 11.5387C13.9734 11.5387 13.6683 11.4441 13.4151 11.3083L14.2923 9.67243C14.3043 9.67886 14.3119 9.68132 14.3149 9.68214C14.3175 9.68284 14.3172 9.68248 14.3152 9.68248V11.5387ZM14.7818 10.4904V10.4923H12.9256V10.4904H14.7818ZM14.7818 10.4923C14.7818 11.0014 14.582 11.4858 14.2206 11.8463L12.9098 10.532C12.9165 10.5254 12.9198 10.5197 12.9217 10.5151C12.9236 10.5105 12.9256 10.5033 12.9256 10.4923H14.7818ZM14.2215 11.8454C13.8613 12.2056 13.3777 12.4057 12.8684 12.4057V10.5495C12.8791 10.5495 12.8861 10.5476 12.8908 10.5456C12.8956 10.5436 12.9017 10.5401 12.909 10.5329L14.2215 11.8454ZM12.8684 12.4057C12.5222 12.4057 12.2133 12.3088 11.9572 12.1694L12.8449 10.5392C12.857 10.5458 12.8646 10.5483 12.8677 10.5491C12.8703 10.5498 12.8701 10.5495 12.8684 10.5495V12.4057ZM13.3275 11.4085C13.3008 11.8653 13.1155 12.3083 12.7751 12.6491L11.4619 11.3373C11.4653 11.3338 11.4673 11.3308 11.469 11.327C11.4708 11.3228 11.4737 11.3143 11.4745 11.3001L13.3275 11.4085ZM12.7747 12.6495C12.4145 13.0097 11.9309 13.2098 11.4215 13.2098V11.3536C11.4323 11.3536 11.4394 11.3516 11.4441 11.3497C11.4488 11.3477 11.455 11.3442 11.4622 11.337L12.7747 12.6495ZM11.4215 13.2098C10.3969 13.2098 9.57469 12.4056 9.5155 11.4092L11.3684 11.2991C11.3694 11.3149 11.3758 11.3287 11.3872 11.3396C11.3928 11.3449 11.3985 11.3484 11.4034 11.3504C11.4077 11.3521 11.4132 11.3536 11.4215 11.3536V13.2098ZM10.8832 12.1706C10.5835 12.3326 10.228 12.4261 9.84832 12.4017L9.96732 10.5493C9.96733 10.5493 9.96931 10.5495 9.97421 10.5483C9.97944 10.5471 9.98852 10.5442 10.0007 10.5377L10.8832 12.1706ZM9.84708 12.4016C8.81659 12.334 8.0612 11.4577 8.0612 10.462H9.91738C9.91738 10.4934 9.92877 10.5175 9.94306 10.5333C9.95698 10.5486 9.96643 10.5492 9.96855 10.5494L9.84708 12.4016ZM8.0612 10.462V6.03036H9.91738V10.462H8.0612ZM9.79309 6.49433L9.28846 7.36856L7.68087 6.44063L8.18549 5.56639L9.79309 6.49433ZM9.28931 7.3671C8.93069 7.99101 8.26315 8.37468 7.54532 8.37468V6.51849C7.60222 6.51849 7.65425 6.48694 7.68003 6.44209L9.28931 7.3671ZM7.54532 8.37468C7.19435 8.37468 6.84886 8.28264 6.54355 8.1077L7.46638 6.49717C7.49134 6.51147 7.51878 6.51849 7.54532 6.51849V8.37468ZM6.53948 8.10535C6.1228 7.86379 5.81951 7.47066 5.69441 7.00245L7.48769 6.52332C7.48684 6.52015 7.48453 6.51454 7.48006 6.50872C7.47562 6.50294 7.47152 6.50013 7.47045 6.49952L6.53948 8.10535ZM5.69469 7.00349C5.5691 6.53562 5.63485 6.04217 5.87709 5.6238L7.48343 6.55392C7.48475 6.55163 7.48707 6.54634 7.48806 6.53884C7.48906 6.53132 7.48823 6.52531 7.48741 6.52227L5.69469 7.00349ZM6.68026 5.16077C6.225 5.2801 5.88423 5.61169 5.88168 5.61596C5.88084 5.61739 5.87957 5.61954 5.87917 5.62023C5.87894 5.62062 5.87855 5.6213 5.87841 5.62153C5.87833 5.62167 5.87816 5.62196 5.87812 5.62203C5.87799 5.62226 5.87803 5.62219 5.87838 5.62159C5.87901 5.6205 5.88007 5.61867 5.88161 5.616C5.88466 5.61073 5.88924 5.60281 5.89529 5.59234C5.90737 5.57143 5.92513 5.54069 5.9478 5.50145C5.99313 5.42297 6.05801 5.31064 6.13619 5.17527C6.29254 4.90453 6.50205 4.54171 6.7147 4.1734C7.14073 3.43554 7.57749 2.67888 7.62696 2.59262L9.23713 3.51608C9.18589 3.60543 8.74684 4.36603 8.32219 5.10152C8.10951 5.46988 7.89997 5.83276 7.74358 6.10355C7.66539 6.23895 7.60047 6.35134 7.5551 6.4299C7.53241 6.46917 7.51459 6.50002 7.50242 6.52108C7.49634 6.53159 7.49163 6.53974 7.48842 6.5453C7.48683 6.54805 7.48551 6.55032 7.48455 6.55199C7.4841 6.55276 7.48354 6.55372 7.48301 6.55464C7.48281 6.55498 7.48222 6.556 7.4815 6.55723C7.48105 6.558 7.47975 6.56021 7.47888 6.56169C7.4763 6.56601 7.13552 6.89762 6.68026 7.01695V5.16077ZM7.58678 2.67109C7.597 2.64856 7.62937 2.57592 7.65914 2.50897L9.35517 3.26322C9.32689 3.32682 9.29104 3.40734 9.27731 3.43761L7.58678 2.67109ZM7.65915 2.50896C7.67204 2.47995 7.68632 2.44289 7.7067 2.38541L9.45619 3.00566C9.43098 3.07675 9.3977 3.1676 9.35517 3.26323L7.65915 2.50896ZM7.70661 2.38566C8.3352 0.611045 9.91738 -0.511219 11.7988 -0.511219V1.34497C10.7068 1.34497 9.82342 1.96891 9.45628 3.00541L7.70661 2.38566ZM11.7988 -0.511219C14.3114 -0.511219 16.2283 1.67972 16.2283 4.21365H14.3721C14.3721 2.56046 13.1476 1.34497 11.7988 1.34497V-0.511219ZM16.2283 4.21362L16.2285 9.62511L14.3723 9.62517L14.3721 4.21368L16.2283 4.21362ZM16.2285 9.62514C16.2285 10.1341 16.0288 10.6174 15.6691 10.9778L14.3554 9.66647C14.3627 9.65912 14.3663 9.65287 14.3683 9.648C14.3703 9.64312 14.3723 9.63596 14.3723 9.62514H16.2285ZM15.6685 10.9784C15.3082 11.3387 14.8246 11.5387 14.3151 11.5387V9.6825C14.326 9.6825 14.3332 9.68052 14.3379 9.67856C14.3426 9.6766 14.3487 9.6731 14.356 9.66587L15.6685 10.9784ZM13.8287 9.82017L13.8288 9.82015L14.8016 11.401L14.8015 11.401L13.8287 9.82017ZM11.7988 1.86851C10.9164 1.86851 10.2473 2.34055 9.94974 3.18055L8.2001 2.56071C8.75887 0.983459 10.1262 0.0123243 11.7988 0.0123243V1.86851ZM9.94903 3.18254C9.91973 3.26464 9.88167 3.36833 9.83358 3.47636L8.13784 2.72145C8.15633 2.67992 8.17533 2.63011 8.20081 2.55871L9.94903 3.18254ZM9.83336 3.47685C9.79086 3.57217 9.75525 3.65267 9.728 3.7072C9.71109 3.74104 9.68371 3.7932 9.64401 3.85097C9.60378 3.9095 9.56402 3.95365 9.56079 3.95735L8.16299 2.73604C8.16517 2.73355 8.16446 2.73436 8.16336 2.73563C8.16194 2.73728 8.15834 2.74149 8.1536 2.74726C8.1487 2.75323 8.14253 2.76095 8.13557 2.77013C8.12855 2.77939 8.12141 2.78924 8.11427 2.79963C8.09973 2.82079 8.08853 2.83932 8.08057 2.85333C8.07314 2.86642 8.06859 2.87547 8.06757 2.87751C8.06651 2.87962 8.06717 2.87838 8.07033 2.87163C8.07338 2.86508 8.07771 2.85566 8.08392 2.84195C8.09007 2.82835 8.09744 2.81193 8.10651 2.79164C8.11557 2.77138 8.12592 2.74817 8.13805 2.72096L9.83336 3.47685ZM8.25527 4.0491L8.25166 4.04598L9.4649 2.64118L9.46851 2.64429L8.25527 4.0491ZM9.67833 3.77818C9.53308 4.05226 9.1184 4.76999 7.93726 6.81505L6.3299 5.88671C7.52763 3.81291 7.91389 3.1436 8.03824 2.90898L9.67833 3.77818ZM7.93687 6.81572C8.01113 6.68739 8.03183 6.53255 7.99364 6.38883L6.19972 6.86558C6.11167 6.53426 6.15828 6.18329 6.33028 5.88604L7.93687 6.81572ZM7.99286 6.38593C7.95467 6.24408 7.8608 6.12002 7.73025 6.04465L6.80225 7.65221C6.50409 7.48009 6.2892 7.19794 6.2005 6.86848L7.99286 6.38593ZM7.72851 6.04366C7.62287 5.98297 7.52012 5.98337 7.44917 6.00248C7.3785 6.0215 7.28788 6.07305 7.22584 6.18113L8.83572 7.1051C8.43124 7.80985 7.50685 8.05694 6.80398 7.65321L7.72851 6.04366ZM7.22712 6.17892L8.22075 4.45862L9.82808 5.38701L8.83445 7.10731L7.22712 6.17892ZM8.22131 4.45765C8.48938 3.99483 9.03655 3.76322 9.56142 3.90528L9.07647 5.69699C9.3711 5.77674 9.67818 5.64581 9.82752 5.38799L8.22131 4.45765ZM9.55912 3.90466C10.0798 4.04415 10.441 4.51599 10.441 5.05401H8.58486C8.58486 5.35523 8.78704 5.61946 9.07877 5.69761L9.55912 3.90466ZM10.441 5.05401V10.4621H8.58486V5.05401H10.441ZM10.441 10.4621C10.441 10.3564 10.4019 10.2602 10.3375 10.1867C10.2733 10.1132 10.16 10.0374 10.0031 10.027L9.88118 11.8792C9.0999 11.8278 8.58486 11.1472 8.58486 10.4621H10.441ZM9.99115 10.0263C9.8815 10.0205 9.74755 10.0607 9.64575 10.1623L10.9571 11.476C10.6641 11.7685 10.2756 11.9001 9.89312 11.8799L9.99115 10.0263ZM9.64518 10.1629C9.5571 10.251 9.50815 10.3716 9.50815 10.4926H11.3643C11.3643 10.8613 11.2196 11.2135 10.9577 11.4754L9.64518 10.1629ZM9.50815 10.4926V6.95564H11.3643V10.4926H9.50815ZM9.50815 6.95564C9.50815 6.29843 10.0409 5.76565 10.6981 5.76565V7.62184C11.0661 7.62184 11.3643 7.32357 11.3643 6.95564H9.50815ZM10.6981 5.76565C11.355 5.76565 11.8881 6.29789 11.8881 6.95564H10.0319C10.0319 7.32378 10.3306 7.62184 10.6981 7.62184V5.76565ZM11.8881 6.95568L11.888 11.2966L10.0318 11.2966L10.0319 6.95561L11.8881 6.95568ZM11.888 11.2966C11.888 11.0385 11.6796 10.8301 11.4215 10.8301V12.6863C10.6544 12.6863 10.0318 12.0637 10.0318 11.2966H11.888ZM11.4215 10.8301C11.3007 10.8301 11.1806 10.8788 11.0927 10.9665L12.404 12.2803C12.1419 12.5419 11.7896 12.6863 11.4215 12.6863V10.8301ZM11.0915 10.9678C11.0037 11.0557 10.9551 11.1758 10.9551 11.2966H12.8112C12.8112 11.6647 12.6668 12.017 12.4052 12.2791L11.0915 10.9678ZM10.9551 11.2966V6.95564H12.8112V11.2966H10.9551ZM10.9551 6.95564C10.9551 6.29881 11.4873 5.76565 12.145 5.76565V7.62183C12.5132 7.62183 12.8112 7.32318 12.8112 6.95564H10.9551ZM12.145 5.76565C12.8019 5.76565 13.335 6.29788 13.335 6.95564H11.4788C11.4788 7.32378 11.7775 7.62183 12.145 7.62183V5.76565ZM13.335 6.95568L13.3349 10.452L11.4787 10.4519L11.4788 6.95559L13.335 6.95568ZM13.3349 10.4519V10.4926H11.4787V10.4519H13.3349ZM13.3349 10.4926C13.3349 10.2339 13.126 10.026 12.8686 10.026V11.8822C12.1018 11.8822 11.4787 11.26 11.4787 10.4926H13.3349ZM12.8686 10.026C12.7453 10.026 12.6259 10.0761 12.5404 10.1613L13.8504 11.4763C13.5898 11.7359 13.2389 11.8822 12.8686 11.8822V10.026ZM12.5398 10.1619C12.451 10.2505 12.4021 10.3716 12.4021 10.4924H14.2583C14.2583 10.8609 14.1137 11.2136 13.8511 11.4757L12.5398 10.1619ZM12.4021 10.4924V6.95545H14.2583V10.4924H12.4021ZM12.4021 6.95545C12.4021 6.29861 12.9344 5.76547 13.5921 5.76547V7.62165C13.9603 7.62165 14.2583 7.32301 14.2583 6.95545H12.4021ZM13.5921 5.76547C14.2489 5.76547 14.7821 6.2977 14.7821 6.95545H12.9259C12.9259 7.3236 13.2246 7.62165 13.5921 7.62165V5.76547ZM14.7821 6.95557L14.7818 9.62538L12.9256 9.62515L12.9259 6.95534L14.7821 6.95557ZM14.7818 9.62526C14.7818 9.36781 14.5738 9.15897 14.3151 9.15897V11.0152C13.5478 11.0152 12.9256 10.3921 12.9256 9.62526H14.7818ZM14.3151 9.15897C14.1934 9.15897 14.0733 9.20827 13.986 9.29539L15.2973 10.6091C15.0362 10.8698 14.6845 11.0152 14.3151 11.0152V9.15897ZM13.9854 9.29601C13.897 9.38438 13.8485 9.50499 13.8485 9.62526H15.7047C15.7047 9.99283 15.5608 10.3457 15.2979 10.6085L13.9854 9.29601ZM13.8485 9.62524L13.8487 4.21375L15.7049 4.2138L15.7047 9.62529L13.8485 9.62524ZM13.8487 4.21377C13.8487 2.83704 12.8477 1.86856 11.7988 1.86856V0.0123777C14.0342 0.0123777 15.7049 1.98106 15.7049 4.21377H13.8487ZM10.9064 0.685504L10.9065 0.685451L12.6912 1.19538L12.6912 1.19544L10.9064 0.685504Z" fill="#4CAF4F" mask="url(#path-1-inside-1_3_1280)"/>
<path d="M5.83258 15.5855C5.70827 15.6603 5.54756 15.6199 5.47327 15.4958C5.39882 15.3718 5.43916 15.2109 5.56297 15.1365M5.83258 15.5855L8.09518 12.541C8.31378 12.4096 8.60208 12.4614 8.73688 12.6564M5.83258 15.5855L8.86545 13.766H8.86561L8.86594 13.7658M5.83258 15.5855L10.03 14.1441C10.1359 14.0805 10.2107 13.9798 10.2405 13.8603M5.56297 15.1365L8.59601 13.317C8.70195 13.2533 8.77689 13.1525 8.80674 13.0333M5.56297 15.1365L5.59368 15.1877L5.69768 15.361L5.69789 15.3614L5.74475 15.4395L5.80169 15.5344L5.80181 15.5343L5.80187 15.5343L5.80211 15.5342M5.56297 15.1365L5.59373 15.1876M8.80674 13.0333C8.83954 12.9024 8.81461 12.7686 8.73688 12.6564M8.80674 13.0333L8.8816 13.052L8.87445 12.8981C8.86953 12.7922 8.83854 12.6982 8.78613 12.6227L8.78598 12.6225L8.73688 12.6564M8.80674 13.0333L8.8816 13.052L8.88898 13.2108L8.73714 13.3019H8.73693L8.62672 13.368L8.6267 13.3681L8.62667 13.3681L5.59385 15.1875M8.73688 12.6564L8.78594 12.6224L6.54662 16.7749C6.64185 16.7176 6.67335 16.5938 6.61561 16.4976C6.55835 16.4023 6.43408 16.3709 6.33837 16.4283L9.37125 14.6089C9.44095 14.567 9.51398 14.5354 9.58856 14.5137L10.059 14.1925L10.059 14.1925L10.0849 14.1748C10.1952 14.0994 10.2683 13.995 10.2983 13.8748L10.2983 13.8747L10.2405 13.8603M5.59385 15.1875C5.68929 15.1305 5.81353 15.1614 5.8711 15.2569C5.87122 15.2571 5.87134 15.2573 5.87147 15.2575C5.9287 15.3535 5.89713 15.477 5.80211 15.5342M5.59385 15.1875C5.59381 15.1876 5.59377 15.1876 5.59373 15.1876M5.59385 15.1875L5.59373 15.1876M5.80211 15.5342L8.83473 13.7149L8.83479 13.7149L8.83494 13.7148C8.83503 13.7147 8.83513 13.7147 8.83522 13.7146L8.86545 13.765L8.86561 13.7653L8.86594 13.7658M5.80211 15.5342L5.69812 15.3612L5.69791 15.3609L5.66273 15.3024L5.59373 15.1876M8.86594 13.7658V13.6953C8.92446 13.657 8.97801 13.6126 9.02584 13.563L9.52506 13.3024L9.52508 13.3024L9.55272 13.288C9.63298 13.2461 9.7139 13.2265 9.79077 13.2265C9.83234 13.2265 9.87521 13.2317 9.91888 13.2425C9.91891 13.2425 9.91893 13.2425 9.91896 13.2425C9.91911 13.2425 9.91926 13.2426 9.9194 13.2426L10.0171 12.8502M8.86594 13.7658L9.55503 13.3524C9.66064 13.2891 9.78429 13.2706 9.9045 13.3004C10.024 13.3302 10.1249 13.405 10.1884 13.5108C10.2518 13.6167 10.2704 13.7409 10.2405 13.8603M10.0171 12.8502C10.0171 12.8502 10.0171 12.8502 10.017 12.8502M10.0171 12.8502C10.2562 12.91 10.4596 13.0609 10.5862 13.2719L10.6373 13.2413M10.0171 12.8502L10.0315 12.7923M10.017 12.8502L9.91903 13.2425C10.0548 13.2764 10.1673 13.3598 10.2393 13.48C10.2394 13.48 10.2394 13.4801 10.2395 13.4801C10.2395 13.4802 10.2395 13.4802 10.2395 13.4802C10.3117 13.6009 10.3321 13.7393 10.2983 13.8746L10.2983 13.8747L10.2405 13.8603M10.017 12.8502C10.017 12.8502 10.017 12.8502 10.0169 12.8502L10.0163 12.85C9.94462 12.8322 9.87196 12.8231 9.79968 12.8225M10.017 12.8502L10.0315 12.7923M9.57943 14.9555L9.84104 14.7986L10.1108 14.9577C10.1916 15.0054 10.2526 15.0651 10.2939 15.134L10.2941 15.1343C10.2941 15.1344 10.2942 15.1344 10.2942 15.1345L10.2433 15.1651M9.57943 14.9555L10.3533 15.5291C10.387 15.3935 10.3664 15.2551 10.2942 15.1346L10.2433 15.1651M9.57943 14.9555L9.61013 15.0067M9.57943 14.9555L9.57941 14.9556L9.61013 15.0067M10.2433 15.1651C10.1123 14.9469 9.82808 14.8758 9.61013 15.0067M10.2433 15.1651C10.3069 15.2709 10.3255 15.3952 10.2956 15.5148L9.61013 15.0067M10.6855 14.8848C10.6877 14.8884 10.6899 14.8921 10.6921 14.8957L10.6855 14.8848ZM10.6855 14.8848C10.6698 14.8971 10.6539 14.909 10.6377 14.9206C10.6388 14.9224 10.6399 14.9241 10.6409 14.9259L10.6855 14.8848ZM10.6132 14.1771C10.6467 14.113 10.6728 14.0445 10.6907 13.9728L10.6132 14.1771ZM10.6132 14.1771C10.6299 14.1874 10.6464 14.1981 10.6628 14.2092C10.7 14.1399 10.7289 14.0656 10.7485 13.9872C10.8123 13.7321 10.7728 13.4673 10.6373 13.2413M10.6132 14.1771L10.6907 13.9727C10.7505 13.7336 10.7128 13.4833 10.5864 13.2723L10.5863 13.272C10.5863 13.272 10.5862 13.272 10.5862 13.2719L10.6373 13.2413M10.6373 13.2413C10.502 13.0157 10.2868 12.8561 10.0315 12.7923M10.0315 12.7923L9.79444 12.7625M9.79444 12.7625C9.79659 12.7825 9.79833 12.8025 9.79968 12.8225M9.79444 12.7625C9.79322 12.7625 9.79199 12.7625 9.79077 12.7625C9.63384 12.7625 9.47968 12.8026 9.33799 12.8766M9.79444 12.7625L9.33799 12.8766M9.79968 12.8225C9.80042 12.8333 9.80103 12.8442 9.80154 12.8551L9.79077 12.8556L9.50267 12.869M9.79968 12.8225C9.79671 12.8224 9.79374 12.8224 9.79077 12.8224C9.69285 12.8225 9.59572 12.8382 9.50267 12.869M9.50267 12.869L9.33799 12.8766M9.50267 12.869C9.45543 12.8846 9.40923 12.9041 9.36453 12.9274C9.3483 12.9359 9.33227 12.9449 9.31646 12.9544L9.31629 12.9545L9.2833 12.9743M9.33799 12.8766L9.07351 13.1001L9.0736 13.1001L9.25689 13.1459C9.25688 13.146 9.25687 13.146 9.25686 13.1461C9.27117 13.089 9.27993 13.0315 9.2833 12.9743M9.33799 12.8766L9.26715 12.7409M9.33799 12.8766C9.33065 12.7185 9.28897 12.5628 9.20898 12.4238C9.19079 12.4319 9.17277 12.4404 9.15493 12.4492M9.2833 12.9743C9.28517 12.9424 9.28539 12.9107 9.28397 12.8791C9.28188 12.8326 9.27624 12.7864 9.26715 12.7409M9.2833 12.9743L9.26715 12.7409M9.26715 12.7409L9.12326 12.4652C9.13375 12.4598 9.14431 12.4544 9.15493 12.4492M9.26715 12.7409L9.11839 12.3922C9.13129 12.4109 9.14347 12.4298 9.15493 12.4492M9.26715 12.7409C9.24676 12.6389 9.20899 12.5404 9.15493 12.4492M10.3466 14.558L10.4259 14.4236C10.3915 14.4557 10.3546 14.4853 10.3153 14.5122C10.3001 14.5225 10.2847 14.5325 10.2689 14.5419L10.2687 14.5421L10.2351 14.5622L10.3466 14.558ZM2.93575 12.3984L2.88299 12.3706C2.87329 12.3881 2.84914 12.4316 2.81348 12.4959C2.80465 12.5118 2.79511 12.529 2.78491 12.5473C2.80309 12.5564 2.82143 12.5644 2.83981 12.5713C2.87118 12.5148 2.90315 12.4571 2.93575 12.3984ZM7.08273 17.6691C7.08268 17.6691 7.08263 17.6691 7.08258 17.6691L7.08273 17.6691Z" fill="#4CAF4F" stroke="#4CAF4F" stroke-width="0.928093"/>
<path d="M18.7845 13.2345L18.7844 13.2345L18.7845 13.2345ZM18.7845 13.2345C18.6872 13.0603 18.6912 12.8458 18.7942 12.6741L18.7845 13.2345ZM13.0429 12.8222C12.9704 12.8228 12.8975 12.832 12.8255 12.85L13.0429 12.8222ZM13.0429 12.8222C13.0442 12.8023 13.046 12.7823 13.0481 12.7623L13.0429 12.8222ZM18.3668 13.5599L18.3274 13.4889L18.3668 13.5599ZM17.2487 15.1874C17.2486 15.1874 17.2485 15.1873 17.2484 15.1873L17.2485 15.1874L17.2487 15.1874ZM15.7598 17.6694C15.7597 17.6693 15.7596 17.6693 15.7595 17.6692L15.7598 17.6694ZM15.7593 17.6691L15.7595 17.6692L15.7593 17.6691Z" fill="#4CAF4F" stroke="#4CAF4F" stroke-width="0.928093"/>
</svg>
