<svg width="30" height="24" viewBox="0 0 30 24" fill="none" xmlns="http://www.w3.org/2000/svg">
<path d="M2.43658 6.48013V6.82816H2.78462H27.8431H28.1912V6.48013V4.91397C28.1912 4.12938 27.8795 3.37693 27.3247 2.82214C26.7699 2.26735 26.0174 1.95567 25.2329 1.95567H5.39488C4.61029 1.95567 3.85784 2.26735 3.30305 2.82214C2.74826 3.37693 2.43658 4.12938 2.43658 4.91397V6.48013ZM28.1912 8.56833V8.2203H27.8431H2.78462H2.43658V8.56833V18.4873C2.43658 19.2719 2.74826 20.0244 3.30305 20.5792C3.85784 21.1339 4.61029 21.4456 5.39488 21.4456H25.2329C26.0174 21.4456 26.7699 21.1339 27.3247 20.5792C27.8795 20.0244 28.1912 19.2719 28.1912 18.4873V8.56833ZM1.04445 4.91397C1.04445 3.76016 1.50279 2.65361 2.31866 1.83775C3.13452 1.02188 4.24107 0.563535 5.39488 0.563535H25.2329C26.3867 0.563535 27.4932 1.02188 28.3091 1.83775C29.1249 2.65361 29.5833 3.76016 29.5833 4.91397V18.4873C29.5833 19.6411 29.1249 20.7477 28.3091 21.5635C27.4932 22.3794 26.3867 22.8378 25.2329 22.8378H5.39488C4.24107 22.8378 3.13452 22.3794 2.31866 21.5635C1.50279 20.7477 1.04445 19.6411 1.04445 18.4873V4.91397ZM20.5344 15.181H23.6667C23.8513 15.181 24.0284 15.2543 24.1589 15.3849C24.2894 15.5154 24.3628 15.6925 24.3628 15.8771C24.3628 16.0617 24.2894 16.2387 24.1589 16.3693C24.0284 16.4998 23.8513 16.5731 23.6667 16.5731H20.5344C20.3498 16.5731 20.1727 16.4998 20.0422 16.3693C19.9117 16.2387 19.8383 16.0617 19.8383 15.8771C19.8383 15.6925 19.9117 15.5154 20.0422 15.3849C20.1727 15.2543 20.3498 15.181 20.5344 15.181Z" fill="#4CAF4F" stroke="#4CAF4F" stroke-width="0.696069"/>
</svg>
