<svg width="34" height="34" viewBox="0 0 34 34" fill="none" xmlns="http://www.w3.org/2000/svg">
<path d="M28.0713 29.2299V26.4456C28.0713 24.9688 27.4847 23.5524 26.4403 22.5081C25.396 21.4638 23.9797 20.8771 22.5028 20.8771H21.1106C20.7414 20.8771 20.3873 20.7304 20.1263 20.4693C19.8652 20.2082 19.7185 19.8541 19.7185 19.4849V12.5242C19.7185 11.7858 19.4252 11.0776 18.903 10.5555C18.3809 10.0333 17.6727 9.73996 16.9342 9.73996C16.1958 9.73996 15.4876 10.0333 14.9654 10.5555C14.4433 11.0776 14.15 11.7858 14.15 12.5242V25.0535L10.8088 20.5986C10.5495 20.2528 10.2132 19.9722 9.82656 19.7789C9.43995 19.5856 9.01364 19.4849 8.5814 19.4849H7.97721C6.77301 19.4849 5.79712 20.4608 5.79712 21.665C5.79712 22.0604 5.90431 22.4488 6.10757 22.7871L9.97354 29.2299M16.9342 5.56354V4.1714V5.56354ZM25.2871 13.9164H26.6792H25.2871ZM7.18926 13.9164H8.5814H7.18926ZM10.451 7.43318L9.4668 6.44894L10.451 7.43318ZM23.4174 7.43318L24.4017 6.44894L23.4174 7.43318Z" fill="#4CAF4F"/>
<path d="M28.0713 29.2299V26.4456C28.0713 24.9688 27.4847 23.5524 26.4403 22.5081C25.396 21.4638 23.9797 20.8771 22.5028 20.8771H21.1106C20.7414 20.8771 20.3873 20.7304 20.1263 20.4693C19.8652 20.2082 19.7185 19.8541 19.7185 19.4849V12.5242C19.7185 11.7858 19.4252 11.0776 18.903 10.5555C18.3809 10.0333 17.6727 9.73996 16.9342 9.73996V9.73996C16.1958 9.73996 15.4876 10.0333 14.9654 10.5555C14.4433 11.0776 14.15 11.7858 14.15 12.5242V25.0535L10.8088 20.5986C10.5495 20.2528 10.2132 19.9722 9.82656 19.7789C9.43995 19.5856 9.01364 19.4849 8.5814 19.4849H7.97721C6.77301 19.4849 5.79712 20.4608 5.79712 21.665C5.79712 22.0604 5.90431 22.4488 6.10757 22.7871L9.97354 29.2299M16.9342 5.56354V4.1714M25.2871 13.9164H26.6792M7.18926 13.9164H8.5814M10.451 7.43318L9.4668 6.44894M23.4174 7.43318L24.4017 6.44894" stroke="#4CAF4F" stroke-width="1.39214" stroke-linecap="round" stroke-linejoin="round"/>
</svg>
