<svg width="34" height="34" viewBox="0 0 34 34" fill="none" xmlns="http://www.w3.org/2000/svg">
<g clip-path="url(#clip0_3_1273)">
<path d="M32.4496 26.9085L32.4496 26.9085C32.5809 26.8175 32.6927 26.7013 32.7787 26.5667L33.072 26.754L32.7787 26.5667C32.8646 26.4321 32.9229 26.2818 32.9503 26.1244C32.9776 25.967 32.9734 25.8058 32.9378 25.6501L33.2771 25.5727L32.9378 25.6501C32.9023 25.4944 32.8362 25.3473 32.7433 25.2174L32.7417 25.2152C31.4347 23.3573 29.6537 21.8834 27.5841 20.9468L27.0794 20.7184L27.5042 20.3628C28.764 19.3084 29.6682 17.8912 30.0937 16.3044C30.5192 14.7176 30.4453 13.0382 29.8821 11.4949C29.3189 9.95157 28.2938 8.61932 26.9463 7.67953C25.5987 6.73973 23.9943 6.23807 22.3514 6.24284L22.3499 6.24285C21.6187 6.24163 20.891 6.34258 20.1879 6.54278L20.1816 6.54455L20.1816 6.5445C20.0254 6.58583 19.879 6.65782 19.7509 6.75627C19.6228 6.85473 19.5156 6.97769 19.4355 7.11798C19.3553 7.25828 19.3039 7.41312 19.2842 7.57347C19.2645 7.73383 19.2769 7.89651 19.3206 8.05203C19.3644 8.20755 19.4387 8.35282 19.5391 8.47937L19.2665 8.69573L19.5391 8.47937C19.6396 8.60592 19.7642 8.71122 19.9057 8.78914L19.7378 9.09402L19.9057 8.78914C20.0472 8.86707 20.2028 8.91606 20.3635 8.93327C20.5241 8.95048 20.6866 8.93556 20.8414 8.88938L20.8454 8.88819L20.8454 8.88821C21.3351 8.74852 21.8419 8.67813 22.3511 8.67909M32.4496 26.9085L22.3504 9.02712M32.4496 26.9085L32.4455 26.9114C32.2424 27.0566 31.9987 27.1343 31.749 27.1336C31.5537 27.1324 31.3614 27.0848 31.1881 26.9946C31.0149 26.9045 30.8657 26.7745 30.7526 26.6153M32.4496 26.9085L30.4683 26.816M22.3511 8.67909L22.3504 9.02712M22.3511 8.67909C22.3509 8.67909 22.3507 8.67909 22.3504 8.67909V9.02712M22.3511 8.67909C23.8277 8.67926 25.2438 9.26593 26.288 10.3101C27.3323 11.3544 27.919 12.7708 27.919 14.2476C27.919 15.7245 27.3323 17.1409 26.288 18.1852C25.2437 19.2295 23.8273 19.8162 22.3504 19.8162C22.0274 19.8162 21.7175 19.9445 21.4891 20.173C21.2607 20.4014 21.1323 20.7113 21.1323 21.0343C21.1323 21.3574 21.2607 21.6672 21.4891 21.8957C21.7175 22.1241 22.0274 22.2524 22.3504 22.2524H22.3508C23.9982 22.2543 25.6212 22.6515 27.0832 23.4107C28.5452 24.1699 29.8035 25.2688 30.7526 26.6153M22.3504 9.02712C23.735 9.02712 25.0629 9.57714 26.0419 10.5562C27.0209 11.5352 27.571 12.8631 27.571 14.2476C27.571 15.6322 27.0209 16.9601 26.0419 17.9391C25.0629 18.9181 23.735 19.4682 22.3504 19.4682C21.9351 19.4682 21.5367 19.6332 21.243 19.9269C20.9493 20.2206 20.7843 20.619 20.7843 21.0343C20.7843 21.4497 20.9493 21.848 21.243 22.1418C21.5367 22.4355 21.9351 22.6005 22.3504 22.6005C23.9422 22.6022 25.5102 22.986 26.9228 23.7196C28.3354 24.4531 29.5513 25.515 30.4683 26.816M30.7526 26.6153C30.7525 26.6151 30.7524 26.6149 30.7522 26.6147L30.4683 26.816M30.7526 26.6153C30.7527 26.6154 30.7528 26.6154 30.7528 26.6155L30.4683 26.816M16.8667 20.3634L16.444 20.719L16.9473 20.9468C19.0169 21.8834 20.7978 23.3573 22.1049 25.2152L22.1099 25.2223L22.1152 25.2291C22.2168 25.3592 22.2908 25.5086 22.3329 25.6681C22.375 25.8277 22.3842 25.9942 22.3599 26.1574C22.3357 26.3206 22.2786 26.4772 22.192 26.6177C22.1054 26.7582 21.9912 26.8796 21.8563 26.9747C21.7214 27.0697 21.5685 27.1363 21.4071 27.1704C21.2456 27.2045 21.0789 27.2055 20.9171 27.1733C20.7552 27.1411 20.6016 27.0763 20.4656 26.9829C20.3295 26.8895 20.2139 26.7694 20.1256 26.63L20.1212 26.6229L20.1164 26.6161C19.1692 25.267 17.9112 24.1659 16.4486 23.4057C14.986 22.6455 13.3619 22.2487 11.7136 22.2487C10.0653 22.2487 8.4412 22.6455 6.97864 23.4057C5.51607 24.1659 4.25803 25.267 3.31087 26.6161L3.3101 26.6172C3.19875 26.7771 3.0503 26.9076 2.87746 26.9975C2.70461 27.0875 2.51253 27.1342 2.31768 27.1336L2.31555 27.1336C2.06566 27.1344 1.82183 27.0567 1.61853 26.9114L1.61686 26.9102C1.35334 26.7242 1.17436 26.4413 1.11918 26.1235C1.06401 25.8058 1.13706 25.4791 1.32231 25.2152C2.62941 23.3573 4.41036 21.8834 6.47998 20.9468L6.98329 20.719L6.56053 20.3634C5.30411 19.3064 4.40309 17.8887 3.97963 16.3023C3.55618 14.716 3.63077 13.0378 4.19329 11.4953C4.75582 9.9528 5.77907 8.62058 7.12432 7.67925C8.46957 6.73793 10.0717 6.23304 11.7136 6.23304C13.3555 6.23304 14.9577 6.73793 16.3029 7.67925C17.6482 8.62058 18.6714 9.9528 19.234 11.4953C19.7965 13.0378 19.8711 14.716 19.4476 16.3023C19.0242 17.8887 18.1231 19.3064 16.8667 20.3634ZM7.08354 11.1539C6.47166 12.0697 6.14507 13.1463 6.14507 14.2476C6.14507 15.7245 6.73175 17.1409 7.77606 18.1852C8.82037 19.2295 10.2368 19.8162 11.7136 19.8162C12.815 19.8162 13.8916 19.4896 14.8073 18.8777C15.7231 18.2658 16.4368 17.3962 16.8583 16.3786C17.2798 15.3611 17.39 14.2415 17.1752 13.1613C16.9603 12.0811 16.43 11.0889 15.6512 10.3101C14.8724 9.5313 13.8802 9.00095 12.8 8.78609C11.7198 8.57122 10.6002 8.6815 9.58263 9.10297C8.56511 9.52444 7.69542 10.2382 7.08354 11.1539Z" fill="#4CAF4F" stroke="#4CAF4F" stroke-width="0.696069"/>
</g>
<defs>
<clipPath id="clip0_3_1273">
<rect width="33.4113" height="33.4113" fill="white" transform="translate(0.228516 0.152222)"/>
</clipPath>
</defs>
</svg>
