<svg width="39" height="34" viewBox="0 0 39 34" fill="none" xmlns="http://www.w3.org/2000/svg">
<g clip-path="url(#clip0_3_993)">
<path d="M38.5803 13.6502C38.5843 13.6212 38.5843 13.5918 38.5803 13.5628C38.5841 13.5392 38.5841 13.515 38.5803 13.4913L38.2967 11.45C38.2558 11.2058 38.1463 10.9775 37.9807 10.7908L37.9321 10.7352L37.843 10.6478L32.9332 6.50159L33.0709 6.63663C32.9582 6.50446 32.8168 6.39874 32.657 6.32726C32.4971 6.25578 32.323 6.22035 32.1473 6.2236H30.6565C30.4141 6.21889 30.1772 6.29445 29.9841 6.43806C29.7812 6.29531 29.537 6.22014 29.2873 6.2236H27.7965C27.601 6.22049 27.4082 6.26806 27.2374 6.36151C27.0667 6.45496 26.9242 6.59097 26.8243 6.75577C26.6703 6.99114 26.6125 7.27474 26.6623 7.55006L26.8486 8.8368C26.7252 8.76819 26.5854 8.7326 26.4435 8.73356H19.2247C18.9657 8.73515 18.7126 8.80957 18.4955 8.948C18.2855 9.07686 18.1169 9.26136 18.0094 9.48017L17.4503 9.01155C17.2303 8.81196 16.9399 8.70378 16.6401 8.70972H5.3136C5.05368 8.71437 4.79953 8.78555 4.57634 8.91624C4.271 9.09145 4.04722 9.37634 3.95248 9.71052L0.355205 21.5057C0.287991 21.7001 0.28138 21.9097 0.336216 22.1078C0.391053 22.3058 0.504855 22.4834 0.663083 22.6178C0.704313 22.652 0.747604 22.6838 0.792718 22.713C0.792718 22.713 0.719788 22.6654 0.679278 22.6257L5.58909 26.7798C5.79678 26.9673 6.06833 27.0721 6.35062 27.0737H17.7663C18.027 27.067 18.2813 26.9931 18.5036 26.8592C18.6293 26.7919 18.7418 26.7031 18.8358 26.5971L18.8763 26.5415L18.9411 26.4621L18.9897 26.3747L19.5245 26.8275C19.7292 27.0075 19.9948 27.1065 20.2698 27.1055H31.7098C31.9702 27.097 32.2241 27.0231 32.4471 26.891C32.5699 26.8195 32.6818 26.7313 32.7793 26.6289L32.8197 26.5733L32.8846 26.4939C32.919 26.4436 32.9489 26.3905 32.9737 26.335C33.0001 26.2868 33.0218 26.2363 33.0385 26.1841L36.3198 15.4135V15.3182C36.3238 15.2813 36.3238 15.244 36.3198 15.207V15.1355C36.3237 15.1118 36.3237 15.0877 36.3198 15.064C36.3235 15.0138 36.3235 14.9634 36.3198 14.9131H37.3731C37.4647 14.9214 37.5569 14.9214 37.6485 14.9131H37.7215C37.7807 14.8958 37.8378 14.8718 37.8916 14.8416H37.9726L38.1184 14.7304L38.1833 14.6828L38.2967 14.5398V14.4922L38.3777 14.3571C38.3732 14.3309 38.3732 14.304 38.3777 14.2777C38.3734 14.2648 38.3734 14.2509 38.3777 14.238C38.3949 14.1914 38.4085 14.1436 38.4182 14.095C38.4144 14.0793 38.4144 14.063 38.4182 14.0473C38.4143 14.0237 38.4143 13.9995 38.4182 13.9759C38.4182 13.9759 38.5803 13.6661 38.5803 13.6502Z" fill="black"/>
<path d="M16.9723 9.61525C17.0154 9.65338 17.0454 9.70352 17.0584 9.7589C17.0715 9.81429 17.0669 9.87227 17.0453 9.92502L13.4561 21.7123C13.4109 21.841 13.3185 21.9486 13.1969 22.0141C13.0979 22.079 12.9834 22.1173 12.8646 22.1253H1.45711C1.35969 22.1207 1.26739 22.0812 1.19784 22.0141C1.15647 21.9766 1.12743 21.9278 1.11444 21.8741C1.10145 21.8203 1.10511 21.764 1.12493 21.7123L4.7222 9.92502C4.76365 9.7947 4.8532 9.68424 4.97336 9.61525C5.07394 9.55501 5.18793 9.51958 5.30554 9.51198H16.7131C16.8097 9.5129 16.9024 9.54982 16.9723 9.61525ZM11.0174 19.3374L13.1644 12.2999H7.1528L5.01386 19.3374H11.0174ZM27.8614 9.73438C27.9003 9.77873 27.9489 9.81389 28.0037 9.83727C28.0584 9.86065 28.1177 9.87164 28.1774 9.86941H29.66C29.7165 9.86996 29.7721 9.85638 29.8218 9.82998C29.8714 9.80357 29.9133 9.7652 29.9436 9.7185C29.9699 9.68202 29.9885 9.64072 29.9982 9.59705C30.008 9.55339 30.0087 9.50826 30.0003 9.46433L29.7086 7.36741C29.6809 7.27036 29.631 7.18074 29.5628 7.10529C29.5238 7.06094 29.4752 7.02578 29.4205 7.0024C29.3658 6.97902 29.3064 6.96804 29.2468 6.97026H27.7642C27.7077 6.96972 27.652 6.98329 27.6024 7.0097C27.5528 7.03611 27.5109 7.07447 27.4806 7.12118C27.4239 7.23238 27.3996 7.30386 27.4239 7.36741L27.7237 9.46433C27.739 9.56643 27.7873 9.66105 27.8614 9.73438ZM32.5686 7.35152C32.5408 7.25446 32.4909 7.16485 32.4228 7.0894C32.3855 7.04522 32.3383 7.01007 32.2849 6.98665C32.2315 6.96323 32.1734 6.95219 32.1149 6.95437H30.6241C30.5686 6.95282 30.5137 6.96603 30.4652 6.9926C30.4167 7.01917 30.3765 7.05811 30.3487 7.10529C30.2948 7.17575 30.2714 7.26427 30.2839 7.35152L30.5836 9.44844C30.6024 9.54947 30.6502 9.64315 30.7214 9.7185C30.761 9.76197 30.8098 9.79655 30.8643 9.81985C30.9189 9.84316 30.9778 9.85464 31.0373 9.85352H32.5281C32.5835 9.85424 32.6381 9.84068 32.6864 9.8142C32.7348 9.78771 32.7752 9.74924 32.8036 9.70262C32.8318 9.66708 32.8515 9.6258 32.8613 9.58182C32.8711 9.53784 32.8708 9.49227 32.8603 9.44844L32.5686 7.35152ZM26.557 10.5287L26.4111 9.4961H19.2247C19.1119 9.5022 19.0027 9.53786 18.9087 9.59936C18.849 9.63126 18.7971 9.67548 18.7565 9.72896C18.716 9.78244 18.6878 9.84391 18.6738 9.90913L18.0742 11.879C18.0503 11.9282 18.0421 11.9834 18.0508 12.0373C18.0595 12.0912 18.0846 12.1412 18.1228 12.1808C18.1911 12.2438 18.2803 12.2805 18.374 12.2841H27.1079L24.9609 19.3215H16.2513C16.139 19.324 16.0296 19.357 15.9353 19.4168C15.8207 19.4881 15.737 19.5984 15.7004 19.7265L15.0927 21.6964C15.0729 21.7469 15.0677 21.8019 15.0777 21.8551C15.0877 21.9084 15.1125 21.9579 15.1494 21.9982C15.2156 22.0654 15.3054 22.1052 15.4006 22.1094H26.8405C26.9588 22.0994 27.0729 22.0613 27.1727 21.9982C27.2923 21.9323 27.3821 21.8245 27.4239 21.6964L30.7132 10.9258H27.0107C26.9519 10.927 26.8936 10.9163 26.8392 10.8944C26.7849 10.8725 26.7357 10.84 26.6947 10.7987C26.6277 10.7267 26.5804 10.6393 26.557 10.5446V10.5287Z" fill="white"/>
</g>
<defs>
<clipPath id="clip0_3_993">
<rect width="38.2838" height="20.8821" fill="white" transform="translate(0.299438 6.22339)"/>
</clipPath>
</defs>
</svg>
