<svg width="34" height="34" viewBox="0 0 34 34" fill="none" xmlns="http://www.w3.org/2000/svg">
<g clip-path="url(#clip0_3_1013)">
<path d="M30.0806 8.20285C30.0806 8.52721 30.3467 8.79016 30.6751 8.79016H31.2697C31.5981 8.79016 31.8642 8.52721 31.8642 8.20285C31.8642 7.87849 31.5981 7.61554 31.2697 7.61554H30.6751C30.3467 7.61554 30.0806 7.87849 30.0806 8.20285Z" fill="#212326"/>
<path d="M12.8384 26.4094H15.7267L14.8858 25.5788C14.6628 25.3586 14.3604 25.2348 14.045 25.2348H12.8384C8.24126 25.2348 4.51456 21.5535 4.51456 17.0125C4.51456 12.4714 8.24126 8.79016 12.8384 8.79016H22.3513C26.9485 8.79016 30.6752 12.4714 30.6752 17.0125C30.6752 21.5535 26.9485 25.2348 22.3513 25.2348H18.7927C18.3197 25.2348 17.866 25.0492 17.5315 24.7188L16.5464 23.7457C15.9889 23.195 15.2327 22.8856 14.4443 22.8856H12.8384C9.55471 22.8856 6.8928 20.2561 6.8928 17.0125C6.8928 13.7688 9.55471 11.1394 12.8384 11.1394H22.3513C25.635 11.1394 28.2969 13.7688 28.2969 17.0125C28.2969 20.2561 25.635 22.8856 22.3513 22.8856H20.0664C19.5933 22.8856 19.1396 22.6999 18.8051 22.3695L17.82 21.3964C17.2625 20.8457 16.5063 20.5363 15.7179 20.5363H12.8384C10.8682 20.5363 9.27103 18.9586 9.27103 17.0125C9.27103 15.0663 10.8682 13.4886 12.8384 13.4886H22.3513C24.3215 13.4886 25.9187 15.0663 25.9187 17.0125C25.9187 18.9349 24.3602 20.4978 22.4233 20.5356L22.4229 20.5363H21.5528C21.0797 20.5363 20.626 20.3507 20.2915 20.0203L19.3064 19.0472C18.849 18.5953 18.2578 18.3059 17.6247 18.2166L17.5949 18.1871H12.8384C12.1817 18.1871 11.6493 17.6612 11.6493 17.0125C11.6493 16.3638 12.1817 15.8379 12.8384 15.8379H22.3513C23.0081 15.8379 23.5405 16.3638 23.5405 17.0125C23.5405 17.6612 23.0081 18.1871 22.3513 18.1871H19.9731L20.814 19.0177C21.0369 19.238 21.3394 19.3617 21.6548 19.3617H22.3513C23.6648 19.3617 24.7296 18.3099 24.7296 17.0125C24.7296 15.715 23.6648 14.6632 22.3513 14.6632H12.8384C11.5249 14.6632 10.4602 15.715 10.4602 17.0125C10.4602 18.3099 11.5249 19.3617 12.8384 19.3617H17.2043C17.6774 19.3617 18.1311 19.5473 18.4656 19.8777L19.4507 20.8508C20.0082 21.4016 20.7643 21.7109 21.5528 21.7109H22.6486V21.7019C25.1371 21.5504 27.1078 19.5087 27.1078 17.0125C27.1078 14.4176 24.9782 12.314 22.3513 12.314H12.8384C10.2115 12.314 8.08191 14.4176 8.08191 17.0125C8.08191 19.6074 10.2115 21.7109 12.8384 21.7109H15.7179C16.191 21.7109 16.6447 21.8966 16.9792 22.227L17.9643 23.2001C18.5218 23.7508 19.2779 24.0602 20.0664 24.0602H22.3513C26.2917 24.0602 29.4861 20.9048 29.4861 17.0125C29.4861 13.1201 26.2917 9.96477 22.3513 9.96477H12.8384C8.89798 9.96477 5.70368 13.1201 5.70368 17.0125C5.70368 20.9048 8.89798 24.0602 12.8384 24.0602H14.4443C14.9173 24.0602 15.371 24.2458 15.7055 24.5762L16.6907 25.5493C17.2482 26.1 18.0043 26.4094 18.7927 26.4094H22.3513C27.6052 26.4094 31.8643 22.2023 31.8643 17.0125C31.8643 11.8227 27.6052 7.61554 22.3513 7.61554L12.8384 7.61554C7.58453 7.61554 3.32544 11.8227 3.32544 17.0125C3.32544 22.2023 7.58453 26.4094 12.8384 26.4094Z" fill="#212326"/>
</g>
<defs>
<clipPath id="clip0_3_1013">
<rect width="28.5388" height="18.7939" fill="white" transform="translate(3.32544 7.61554)"/>
</clipPath>
</defs>
</svg>
