<svg width="39" height="34" viewBox="0 0 39 34" fill="none" xmlns="http://www.w3.org/2000/svg">
<g clip-path="url(#clip0_3_1021)">
<path d="M38.8874 13.6502C38.8914 13.6212 38.8914 13.5918 38.8874 13.5628C38.8912 13.5392 38.8912 13.515 38.8874 13.4913L38.6038 11.45C38.5629 11.2058 38.4535 10.9775 38.2878 10.7908L38.2392 10.7352L38.1501 10.6478L33.2403 6.50159L33.3781 6.63663C33.2654 6.50446 33.1239 6.39874 32.9641 6.32726C32.8043 6.25578 32.6301 6.22035 32.4545 6.2236H30.9637C30.7213 6.21889 30.4844 6.29445 30.2912 6.43806C30.0884 6.29531 29.8441 6.22014 29.5944 6.2236H28.1037C27.9081 6.22049 27.7153 6.26806 27.5446 6.36151C27.3738 6.45496 27.2313 6.59097 27.1315 6.75577C26.9775 6.99114 26.9196 7.27474 26.9694 7.55006L27.1558 8.8368C27.0323 8.76819 26.8926 8.7326 26.7506 8.73356H19.5318C19.2728 8.73515 19.0198 8.80957 18.8026 8.948C18.5926 9.07686 18.4241 9.26136 18.3165 9.48017L17.7575 9.01155C17.5374 8.81196 17.247 8.70378 16.9473 8.70972H5.62073C5.36081 8.71437 5.10666 8.78555 4.88347 8.91624C4.57813 9.09145 4.35435 9.37634 4.2596 9.71052L0.662334 21.5057C0.59512 21.7001 0.588508 21.9097 0.643345 22.1078C0.698182 22.3058 0.811983 22.4834 0.970212 22.6178C1.01144 22.652 1.05473 22.6838 1.09985 22.713C1.09985 22.713 1.02692 22.6654 0.986407 22.6257L5.89622 26.7798C6.10391 26.9673 6.37546 27.0721 6.65775 27.0737H18.0735C18.3342 27.067 18.5885 26.9931 18.8107 26.8592C18.9364 26.7919 19.0489 26.7031 19.1429 26.5971L19.1834 26.5415L19.2482 26.4621L19.2968 26.3747L19.8316 26.8275C20.0363 27.0075 20.3019 27.1065 20.577 27.1055H32.0169C32.2773 27.097 32.5312 27.0231 32.7542 26.891C32.8771 26.8195 32.9889 26.7313 33.0864 26.6289L33.1269 26.5733L33.1917 26.4939C33.2261 26.4436 33.256 26.3905 33.2808 26.335C33.3073 26.2868 33.329 26.2363 33.3456 26.1841L36.6269 15.4135V15.3182C36.631 15.2813 36.631 15.244 36.6269 15.207V15.1355C36.6308 15.1118 36.6308 15.0877 36.6269 15.064C36.6306 15.0138 36.6306 14.9634 36.6269 14.9131H37.6802C37.7718 14.9214 37.864 14.9214 37.9556 14.9131H38.0286C38.0879 14.8958 38.145 14.8718 38.1987 14.8416H38.2798L38.4256 14.7304L38.4904 14.6828L38.6038 14.5398V14.4922L38.6848 14.3571C38.6803 14.3309 38.6803 14.304 38.6848 14.2777C38.6805 14.2648 38.6805 14.2509 38.6848 14.238C38.7021 14.1914 38.7156 14.1436 38.7253 14.095C38.7216 14.0793 38.7216 14.063 38.7253 14.0473C38.7214 14.0237 38.7214 13.9995 38.7253 13.9759C38.7253 13.9759 38.8874 13.6661 38.8874 13.6502Z" fill="black"/>
<path d="M17.2795 9.61525C17.3225 9.65338 17.3525 9.70352 17.3656 9.7589C17.3786 9.81429 17.374 9.87227 17.3524 9.92502L13.7633 21.7123C13.7181 21.841 13.6256 21.9486 13.504 22.0141C13.405 22.079 13.2905 22.1173 13.1718 22.1253H1.76424C1.66682 22.1207 1.57452 22.0812 1.50497 22.0141C1.4636 21.9766 1.43456 21.9278 1.42157 21.8741C1.40858 21.8203 1.41224 21.764 1.43206 21.7123L5.02933 9.92502C5.07077 9.7947 5.16033 9.68424 5.28048 9.61525C5.38107 9.55501 5.49506 9.51958 5.61267 9.51198H17.0202C17.1169 9.5129 17.2095 9.54982 17.2795 9.61525ZM11.3245 19.3374L13.4716 12.2999H7.45993L5.32099 19.3374H11.3245ZM28.1685 9.73438C28.2074 9.77873 28.2561 9.81389 28.3108 9.83727C28.3655 9.86065 28.4248 9.87164 28.4845 9.86941H29.9671C30.0236 9.86996 30.0792 9.85638 30.1289 9.82998C30.1785 9.80357 30.2204 9.7652 30.2507 9.7185C30.277 9.68202 30.2956 9.64072 30.3054 9.59705C30.3151 9.55339 30.3158 9.50826 30.3074 9.46433L30.0157 7.36741C29.988 7.27036 29.9381 7.18074 29.87 7.10529C29.831 7.06094 29.7824 7.02578 29.7277 7.0024C29.6729 6.97902 29.6136 6.96804 29.5539 6.97026H28.0713C28.0148 6.96972 27.9592 6.98329 27.9096 7.0097C27.8599 7.03611 27.818 7.07447 27.7877 7.12118C27.731 7.23238 27.7067 7.30386 27.731 7.36741L28.0308 9.46433C28.0462 9.56643 28.0944 9.66105 28.1685 9.73438ZM32.8758 7.35152C32.848 7.25446 32.7981 7.16485 32.7299 7.0894C32.6926 7.04522 32.6454 7.01007 32.592 6.98665C32.5387 6.96323 32.4805 6.95219 32.422 6.95437H30.9313C30.8758 6.95282 30.8208 6.96603 30.7723 6.9926C30.7238 7.01917 30.6836 7.05811 30.6558 7.10529C30.6019 7.17575 30.5786 7.26427 30.591 7.35152L30.8907 9.44844C30.9096 9.54947 30.9573 9.64315 31.0285 9.7185C31.0681 9.76197 31.1169 9.79655 31.1714 9.81985C31.226 9.84316 31.285 9.85464 31.3445 9.85352H32.8352C32.8906 9.85424 32.9452 9.84068 32.9935 9.8142C33.0419 9.78771 33.0823 9.74924 33.1107 9.70262C33.1389 9.66708 33.1586 9.6258 33.1684 9.58182C33.1783 9.53784 33.1779 9.49227 33.1674 9.44844L32.8758 7.35152ZM26.8641 10.5287L26.7182 9.4961H19.5318C19.419 9.5022 19.3098 9.53786 19.2158 9.59936C19.1562 9.63126 19.1042 9.67548 19.0637 9.72896C19.0231 9.78244 18.9949 9.84391 18.9809 9.90913L18.3813 11.879C18.3574 11.9282 18.3492 11.9834 18.3579 12.0373C18.3666 12.0912 18.3917 12.1412 18.4299 12.1808C18.4983 12.2438 18.5874 12.2805 18.6811 12.2841H27.4151L25.268 19.3215H16.5584C16.4461 19.324 16.3367 19.357 16.2425 19.4168C16.1279 19.4881 16.0442 19.5984 16.0075 19.7265L15.3998 21.6964C15.38 21.7469 15.3748 21.8019 15.3848 21.8551C15.3948 21.9084 15.4196 21.9579 15.4565 21.9982C15.5227 22.0654 15.6126 22.1052 15.7077 22.1094H27.1477C27.266 22.0994 27.38 22.0613 27.4798 21.9982C27.5995 21.9323 27.6892 21.8245 27.731 21.6964L31.0204 10.9258H27.3178C27.259 10.927 27.2007 10.9163 27.1464 10.8944C27.092 10.8725 27.0428 10.84 27.0019 10.7987C26.9349 10.7267 26.8875 10.6393 26.8641 10.5446V10.5287Z" fill="white"/>
</g>
<defs>
<clipPath id="clip0_3_1021">
<rect width="38.2838" height="20.8821" fill="white" transform="translate(0.606567 6.22339)"/>
</clipPath>
</defs>
</svg>
