<svg width="37" height="34" viewBox="0 0 37 34" fill="none" xmlns="http://www.w3.org/2000/svg">
<g clip-path="url(#clip0_3_1017)">
<path d="M8.81751 9.70374C7.40398 9.70374 6.04836 10.2653 5.04885 11.2648L1.78686 14.5268C0.787349 15.5263 0.22583 16.8819 0.22583 18.2954C0.22583 21.239 2.61202 23.6251 5.55554 23.6251C6.96907 23.6251 8.32469 23.0636 9.3242 22.0641L11.5805 19.8077C11.5805 19.8077 11.5806 19.8078 11.5805 19.8077L18.1547 13.2336C18.6321 12.7562 19.2795 12.488 19.9546 12.488C21.0849 12.488 22.0431 13.2246 22.3753 14.244L24.4501 12.1692C23.5036 10.6867 21.8439 9.70374 19.9546 9.70374C18.5411 9.70374 17.1855 10.2653 16.186 11.2648L7.35544 20.0953C6.87807 20.5727 6.23064 20.8408 5.55554 20.8408C4.14973 20.8408 3.01011 19.7012 3.01011 18.2954C3.01011 17.6203 3.27828 16.9729 3.75564 16.4955L7.01761 13.2336C7.49498 12.7562 8.14241 12.488 8.81751 12.488C9.94779 12.488 10.9059 13.2247 11.2382 14.2441L13.313 12.1692C12.3665 10.6868 10.7068 9.70374 8.81751 9.70374Z" fill="#394149"/>
<path d="M18.4925 20.0953C18.0152 20.5727 17.3677 20.8408 16.6926 20.8408C15.5626 20.8408 14.6044 20.1044 14.2721 19.0852L12.1974 21.16C13.1439 22.6422 14.8035 23.6251 16.6926 23.6251C18.1062 23.6251 19.4618 23.0636 20.4613 22.0641L29.2918 13.2336C29.7692 12.7562 30.4166 12.488 31.0917 12.488C32.4976 12.488 33.6372 13.6276 33.6372 15.0334C33.6372 15.7085 33.369 16.356 32.8916 16.8333L29.6297 20.0953C29.1523 20.5727 28.5049 20.8408 27.8298 20.8408C26.6996 20.8408 25.7414 20.1043 25.4092 19.085L23.3344 21.1598C24.2809 22.6422 25.9405 23.6251 27.8298 23.6251C29.2433 23.6251 30.5989 23.0636 31.5984 22.0641L34.8604 18.8021C35.8599 17.8026 36.4214 16.447 36.4214 15.0334C36.4214 12.0899 34.0353 9.70374 31.0917 9.70374C29.6782 9.70374 28.3226 10.2653 27.3231 11.2648L18.4925 20.0953Z" fill="#394149"/>
</g>
<defs>
<clipPath id="clip0_3_1017">
<rect width="36.1956" height="13.9214" fill="white" transform="translate(0.22583 9.70374)"/>
</clipPath>
</defs>
</svg>
