<svg width="34" height="34" viewBox="0 0 34 34" fill="none" xmlns="http://www.w3.org/2000/svg">
<g clip-path="url(#clip0_3_990)">
<path fill-rule="evenodd" clip-rule="evenodd" d="M10.0459 9.78355L3.09509 16.6645C4.48538 18.0408 6.07357 19.2007 7.80514 20.1082C8.28376 21.365 9.03398 22.5437 10.0558 23.5552C13.9001 27.3608 20.1329 27.3608 23.9772 23.5552C24.999 22.5437 25.7492 21.365 26.2278 20.1081C27.9594 19.2007 29.5476 18.0408 30.9379 16.6645L23.9927 9.78915C23.9875 9.78401 23.9824 9.77886 23.9772 9.77373C20.1329 5.96808 13.9001 5.96808 10.0558 9.77373C10.0525 9.777 10.0492 9.78028 10.0459 9.78355ZM23.3121 21.3496C21.2865 22.0264 19.1602 22.3729 17.0165 22.3729C14.8728 22.3729 12.7465 22.0264 10.721 21.3496C10.9404 21.6379 11.1827 21.9145 11.4479 22.1771C14.5234 25.2216 19.5096 25.2216 22.585 22.1771C22.8502 21.9145 23.0926 21.6379 23.3121 21.3496ZM11.5907 11.0141C12.113 11.3556 12.6683 11.6479 13.2494 11.8862C14.4437 12.3759 15.7237 12.628 17.0165 12.628C18.3092 12.628 19.5893 12.3759 20.7836 11.8862C21.3647 11.6479 21.92 11.3556 22.4423 11.014C19.4053 8.1533 14.6277 8.1533 11.5907 11.0141Z" fill="#3B4158"/>
</g>
<defs>
<clipPath id="clip0_3_990">
<rect width="27.8428" height="19.4899" fill="white" transform="translate(3.09509 6.91949)"/>
</clipPath>
</defs>
</svg>
