<svg width="46" height="40" viewBox="0 0 46 40" fill="none" xmlns="http://www.w3.org/2000/svg">
<path d="M45.7922 26.5832C45.7922 33.5029 40.1827 39.1124 33.263 39.1124L14.4691 39.1124C12.547 39.1124 10.9888 37.5542 10.9888 35.6321L10.9888 11.9657C10.9888 8.12143 14.1052 5.00502 17.9495 5.00502L42.3119 5.00502C44.234 5.00502 45.7922 6.56323 45.7922 8.48537L45.7922 26.5832Z" fill="#E8F5E9"/>
<path d="M19.2834 13.3655C19.0662 13.3655 18.8896 13.1892 18.8896 12.9717V12.3026C18.8896 12.0854 19.0659 11.9088 19.2834 11.9088C19.5006 11.9088 19.6771 12.0851 19.6771 12.3026V12.9717C19.6771 13.1892 19.5006 13.3655 19.2834 13.3655Z" fill="#103E13"/>
<path d="M17.6279 13.3655C17.4107 13.3655 17.2341 13.1892 17.2341 12.9717V12.3026C17.2341 12.0854 17.4104 11.9088 17.6279 11.9088C17.8451 11.9088 18.0216 12.0851 18.0216 12.3026V12.9717C18.0214 13.1892 17.8453 13.3655 17.6279 13.3655Z" fill="#103E13"/>
<path d="M15.9726 13.3655C15.7554 13.3655 15.5789 13.1892 15.5789 12.9717V12.3026C15.5789 12.0854 15.7551 11.9088 15.9726 11.9088C16.1898 11.9088 16.3664 12.0851 16.3664 12.3026V12.9717C16.3664 13.1892 16.1901 13.3655 15.9726 13.3655Z" fill="#103E13"/>
<path d="M19.2834 16.1018C19.0662 16.1018 18.8896 15.9255 18.8896 15.7081V15.0392C18.8896 14.822 19.0659 14.6454 19.2834 14.6454C19.5006 14.6454 19.6771 14.8217 19.6771 15.0392V15.7081C19.6771 15.9255 19.5006 16.1018 19.2834 16.1018Z" fill="#103E13"/>
<path d="M17.6279 16.1018C17.4107 16.1018 17.2341 15.9255 17.2341 15.7081V15.0392C17.2341 14.822 17.4104 14.6454 17.6279 14.6454C17.8451 14.6454 18.0216 14.8217 18.0216 15.0392V15.7081C18.0214 15.9255 17.8453 16.1018 17.6279 16.1018Z" fill="#103E13"/>
<path d="M15.9726 16.1018C15.7554 16.1018 15.5789 15.9255 15.5789 15.7081V15.0392C15.5789 14.822 15.7551 14.6454 15.9726 14.6454C16.1898 14.6454 16.3664 14.8217 16.3664 15.0392V15.7081C16.3664 15.9255 16.1901 16.1018 15.9726 16.1018Z" fill="#103E13"/>
<path d="M19.2834 18.8383C19.0662 18.8383 18.8896 18.662 18.8896 18.4445V17.7754C18.8896 17.5582 19.0659 17.3817 19.2834 17.3817C19.5006 17.3817 19.6771 17.5579 19.6771 17.7754V18.4445C19.6771 18.662 19.5006 18.8383 19.2834 18.8383Z" fill="#103E13"/>
<path d="M17.6279 18.8383C17.4107 18.8383 17.2341 18.662 17.2341 18.4445V17.7754C17.2341 17.5582 17.4104 17.3817 17.6279 17.3817C17.8451 17.3817 18.0216 17.5579 18.0216 17.7754V18.4445C18.0214 18.662 17.8453 18.8383 17.6279 18.8383Z" fill="#103E13"/>
<path d="M15.9726 18.8383C15.7554 18.8383 15.5789 18.662 15.5789 18.4445V17.7754C15.5789 17.5582 15.7551 17.3817 15.9726 17.3817C16.1898 17.3817 16.3664 17.5579 16.3664 17.7754V18.4445C16.3664 18.662 16.1901 18.8383 15.9726 18.8383Z" fill="#103E13"/>
<path d="M19.2834 21.5741C19.0662 21.5741 18.8896 21.3979 18.8896 21.1804V20.5112C18.8896 20.2941 19.0659 20.1175 19.2834 20.1175C19.5006 20.1175 19.6771 20.2938 19.6771 20.5112V21.1804C19.6771 21.3979 19.5006 21.5741 19.2834 21.5741Z" fill="#103E13"/>
<path d="M17.6279 21.5741C17.4107 21.5741 17.2341 21.3979 17.2341 21.1804V20.5112C17.2341 20.2941 17.4104 20.1175 17.6279 20.1175C17.8451 20.1175 18.0216 20.2938 18.0216 20.5112V21.1804C18.0214 21.3979 17.8453 21.5741 17.6279 21.5741Z" fill="#103E13"/>
<path d="M15.9726 21.5741C15.7554 21.5741 15.5789 21.3979 15.5789 21.1804V20.5112C15.5789 20.2941 15.7551 20.1175 15.9726 20.1175C16.1898 20.1175 16.3664 20.2938 16.3664 20.5112V21.1804C16.3664 21.3979 16.1901 21.5741 15.9726 21.5741Z" fill="#103E13"/>
<path d="M19.2834 24.3105C19.0662 24.3105 18.8896 24.1342 18.8896 23.9167V23.2479C18.8896 23.0307 19.0659 22.8541 19.2834 22.8541C19.5006 22.8541 19.6771 23.0304 19.6771 23.2479V23.9167C19.6771 24.1339 19.5006 24.3105 19.2834 24.3105Z" fill="#103E13"/>
<path d="M17.6279 24.3105C17.4107 24.3105 17.2341 24.1342 17.2341 23.9167V23.2479C17.2341 23.0307 17.4104 22.8541 17.6279 22.8541C17.8451 22.8541 18.0216 23.0304 18.0216 23.2479V23.9167C18.0214 24.1339 17.8453 24.3105 17.6279 24.3105Z" fill="#103E13"/>
<path d="M15.9726 24.3105C15.7554 24.3105 15.5789 24.1342 15.5789 23.9167L15.5791 23.2479C15.5791 23.0307 15.7554 22.8541 15.9729 22.8541C16.1901 22.8541 16.3666 23.0304 16.3666 23.2479V23.9167C16.3664 24.1339 16.1901 24.3105 15.9726 24.3105Z" fill="#103E13"/>
<path d="M4.72445 27.0337C4.72445 27.2509 4.90073 27.4274 5.1182 27.4274H29.0962C29.3134 27.4274 29.49 27.2512 29.49 27.0337C29.49 26.8165 29.3137 26.6399 29.0962 26.6399H28.3684V15.3349C28.3684 15.1177 28.1921 14.9411 27.9746 14.9411L21.5459 14.9414V6.79103C21.5459 6.65319 21.474 6.52579 21.3564 6.45439C21.2392 6.38273 21.0926 6.37834 20.9707 6.44176L13.6617 10.2472C13.5313 10.315 13.45 10.4495 13.45 10.5964V17.7156H6.3765C6.15932 17.7156 5.98276 17.8919 5.98276 18.1094V26.64H5.11732C4.90013 26.6397 4.72412 26.816 4.72412 27.0335L4.72445 27.0337ZM21.546 20.9049H27.5813V26.6403L21.546 26.64V20.9049ZM21.546 18.1687H27.5813V20.1177L21.546 20.1174V18.1687ZM21.546 15.7285H27.5813V17.3817H21.546V15.7285ZM14.2371 10.8355L20.7583 7.44005V26.6396H14.2371V10.8355ZM8.71669 23.4951C8.71669 22.678 9.36414 22.0129 10.1601 22.0129C10.9561 22.0129 11.6039 22.6777 11.6039 23.4951V26.6401H8.71669V23.4951ZM6.77023 18.503H13.4499V26.64H12.3913V23.495C12.3913 22.2437 11.3908 21.2256 10.1601 21.2256C8.93003 21.2256 7.92949 22.2434 7.92949 23.495V26.64H6.77023V18.503Z" fill="#103E13"/>
</svg>
