<svg width="34" height="34" viewBox="0 0 34 34" fill="none" xmlns="http://www.w3.org/2000/svg">
<g clip-path="url(#clip0_3_987)">
<path fill-rule="evenodd" clip-rule="evenodd" d="M9.97901 2.84967C13.8233 2.84967 16.9397 5.96608 16.9397 9.81037V2.84967H23.9004C27.7446 2.84967 30.8611 5.96608 30.8611 9.81037C30.8611 13.6546 27.7446 16.7711 23.9004 16.7711C27.7446 16.7711 30.8611 19.8875 30.8611 23.7318C30.8611 25.6406 30.0927 27.37 28.8484 28.6275L28.8224 28.6537L28.7993 28.6767C27.5415 29.9228 25.8108 30.6924 23.9004 30.6924C22.003 30.6924 20.2829 29.9332 19.0272 28.702C19.0109 28.686 18.9946 28.6699 18.9784 28.6537C18.9632 28.6385 18.948 28.6232 18.9329 28.6078C17.7001 27.3519 16.9397 25.6306 16.9397 23.7318C16.9397 27.576 13.8233 30.6924 9.97901 30.6924C6.13472 30.6924 3.01831 27.576 3.01831 23.7318V16.7711H9.97901C6.13472 16.7711 3.01831 13.6546 3.01831 9.81037C3.01831 5.96608 6.13472 2.84967 9.97901 2.84967ZM15.5476 9.81037C15.5476 12.8858 13.0544 15.3789 9.97901 15.3789V4.24181C13.0544 4.24181 15.5476 6.73494 15.5476 9.81037ZM29.469 23.7318C29.469 20.6563 26.9758 18.1632 23.9004 18.1632C20.825 18.1632 18.3318 20.6563 18.3318 23.7318H29.469ZM4.41045 18.1632V23.7318C4.41045 26.8072 6.90358 29.3003 9.97901 29.3003C13.0544 29.3003 15.5476 26.8072 15.5476 23.7318V18.1632H4.41045ZM18.3318 15.3789V4.24181H23.9004C26.9758 4.24181 29.469 6.73494 29.469 9.81037C29.469 12.8858 26.9758 15.3789 23.9004 15.3789H18.3318Z" fill="#263238"/>
</g>
<defs>
<clipPath id="clip0_3_987">
<rect width="27.8428" height="27.8428" fill="white" transform="translate(3.01831 2.84967)"/>
</clipPath>
</defs>
</svg>
