<svg width="34" height="34" viewBox="0 0 34 34" fill="none" xmlns="http://www.w3.org/2000/svg">
<g clip-path="url(#clip0_3_997)">
<path d="M31.785 9.40075C31.785 9.42429 31.785 9.45371 31.7789 9.47136C31.7483 9.70085 31.7482 9.93033 31.7666 10.1657C31.7789 10.2245 31.7912 10.2834 31.8402 10.3305C31.9199 10.4187 32.0425 10.4011 32.0916 10.2952C32.1161 10.2422 32.1161 10.1892 32.1038 10.1363C32.0425 9.91268 32.0303 9.67731 32.0241 9.44782C32.0241 9.43606 32.0241 9.4184 32.0241 9.40075C32.0916 9.39487 32.1529 9.38898 32.208 9.38898C32.251 9.3831 32.2878 9.37721 32.3184 9.35956C32.4104 9.31249 32.4104 9.21246 32.3123 9.16539C32.2755 9.14773 32.2265 9.14185 32.1835 9.14185C32.0303 9.14773 31.877 9.14773 31.7237 9.14773C31.6686 9.14773 31.6134 9.15362 31.5582 9.1595C31.5275 9.16539 31.4907 9.16539 31.4662 9.18304C31.4233 9.20069 31.3988 9.23011 31.3988 9.2713C31.4049 9.31249 31.4233 9.33603 31.4662 9.35368C31.4907 9.37133 31.5214 9.37721 31.552 9.37721C31.6256 9.3831 31.7053 9.39487 31.785 9.40075ZM33.471 9.67143C33.471 9.67731 33.4771 9.68319 33.4771 9.68319C33.5016 9.84207 33.5262 9.99506 33.5446 10.148C33.5507 10.201 33.5568 10.2481 33.5936 10.2893C33.6733 10.3893 33.7959 10.3775 33.8511 10.2716C33.8756 10.2187 33.8818 10.1657 33.8695 10.1069C33.8327 9.93033 33.8143 9.7538 33.7775 9.58316C33.753 9.47725 33.7224 9.37721 33.6917 9.28307C33.6733 9.22423 33.6304 9.18303 33.5568 9.17715C33.4833 9.16539 33.4281 9.20069 33.3974 9.25365C33.3606 9.30072 33.33 9.34779 33.3054 9.40075C33.2625 9.4949 33.2258 9.58905 33.1767 9.67731C33.1706 9.70085 33.1644 9.7185 33.1522 9.73615C33.1461 9.72438 33.14 9.7185 33.14 9.7185C33.0602 9.57139 32.9867 9.42429 32.907 9.28307C32.8947 9.2713 32.8886 9.25953 32.8824 9.24776C32.8457 9.19481 32.8028 9.16539 32.7353 9.16539C32.674 9.17127 32.6249 9.20657 32.5943 9.25953C32.582 9.28307 32.582 9.30072 32.5759 9.32426C32.5514 9.51255 32.5207 9.70085 32.4962 9.88914C32.4839 9.99506 32.4778 10.101 32.4778 10.2069C32.4717 10.2304 32.4778 10.2598 32.49 10.2834C32.5023 10.3305 32.5391 10.3599 32.5881 10.3658C32.6495 10.3716 32.6924 10.354 32.7108 10.3069C32.7291 10.2716 32.7353 10.2422 32.7414 10.2128C32.766 10.1069 32.7843 10.0068 32.8028 9.90679C32.815 9.84795 32.8211 9.80088 32.8395 9.73615C32.8518 9.75969 32.864 9.77734 32.8763 9.79499C32.9315 9.86561 32.9867 9.93622 33.0541 9.99506C33.1215 10.0421 33.1767 10.0362 33.2319 9.98329C33.2442 9.97152 33.2503 9.96564 33.2625 9.95386C33.3177 9.87149 33.3852 9.78911 33.4403 9.70673C33.4526 9.69496 33.4587 9.68319 33.471 9.67143Z" fill="#3A3B7B"/>
<path d="M19.3448 9.51636C19.3022 9.62818 19.2941 9.70875 19.3138 9.77571C19.3355 9.86677 19.3919 9.89658 19.4684 9.87342C20.1886 9.70251 21.7676 10.1876 22.3523 10.3228C22.4901 10.3512 22.6023 10.1804 22.5082 10.0272C22.3709 9.87891 20.7925 9.24389 20.1903 9.20927C19.9542 9.19646 19.5322 9.13837 19.3448 9.51636Z" fill="#3A3B7B"/>
<path d="M25.5161 7.46073C25.5929 7.50324 25.6358 7.5438 25.657 7.58911C25.6885 7.64855 25.6719 7.68967 25.6189 7.71066C25.1429 7.93363 24.5094 8.89357 24.2538 9.22464C24.1918 9.3008 24.0488 9.25655 24.0272 9.1313C24.0317 8.98969 24.5931 7.94794 24.9065 7.6642C25.0297 7.55342 25.2331 7.33606 25.5161 7.46073Z" fill="#3A3B7B"/>
<path d="M21.7253 6.98822C21.8175 6.92152 21.9134 6.89815 21.9623 6.94149C22.6805 7.53099 23.0613 8.46452 23.2972 9.31914C23.306 9.33905 23.3066 9.36762 23.2995 9.39743C23.2966 9.4229 23.2772 9.44982 23.2464 9.47064C23.2135 9.49363 23.1851 9.50063 23.1718 9.48082C22.8571 9.06991 21.0593 7.47113 21.7253 6.98822Z" fill="#3A3B7B"/>
<path d="M6.51682 17.2087C6.68895 17.0857 6.87608 16.9833 7.07411 16.9038C7.28129 16.847 7.50211 16.8564 7.70322 16.9307C7.90428 17.005 8.07473 17.1401 8.18867 17.3156C8.2906 17.4907 8.33046 17.6928 8.30233 17.8916C8.27419 18.0903 8.17955 18.2748 8.03262 18.4175C7.91872 18.5331 7.7894 18.6338 7.64812 18.717C7.0184 19.1075 6.38307 19.4765 5.74777 19.867C5.61777 19.9647 5.47987 20.0524 5.33537 20.1291C5.11559 20.2343 4.86441 20.2624 4.62526 20.2087C4.38613 20.155 4.17407 20.0228 4.02575 19.8349C3.91488 19.7019 3.82131 19.5564 3.74711 19.4016C3.14524 18.1875 2.52108 16.9787 1.94151 15.7431C1.67401 15.2083 1.45667 14.5931 1.2449 13.9994C1.15328 13.8269 1.13539 13.627 1.19503 13.442C1.25468 13.257 1.38716 13.1017 1.56429 13.009C1.74143 12.9163 1.94924 12.8937 2.14353 12.9458C2.33782 12.9979 2.50326 13.1207 2.60467 13.2881C2.91638 13.6856 3.1923 14.1079 3.42946 14.5504C4.03132 15.6201 4.60533 16.6898 5.18491 17.7275C5.21865 17.7848 5.25587 17.8402 5.29636 17.8933C5.73259 17.7173 6.14289 17.4871 6.51682 17.2087Z" fill="#3A3B7B"/>
<path d="M12.7397 16.8355C11.3632 18.3813 9.05607 17.9908 7.89692 16.0011C7.07212 14.589 6.92724 12.257 8.72172 10.7861C9.10491 10.4782 9.56311 10.2684 10.0536 10.1764C10.655 10.0936 11.2683 10.1954 11.8057 10.4673C12.3432 10.7392 12.7774 11.1671 13.0463 11.6901C14.0271 13.4016 13.8877 15.5839 12.7397 16.8355ZM12.1824 13.2305C12.0362 12.8099 11.7428 12.4508 11.3521 12.2142C11.131 12.0629 10.8623 11.9894 10.5913 12.006C10.3203 12.0225 10.0635 12.1282 9.86413 12.3051C9.06724 12.9844 8.90002 14.5944 9.47959 15.5518C9.55348 15.7079 9.66195 15.8467 9.79754 15.9583C9.93312 16.07 10.0925 16.1519 10.2645 16.1982C10.4365 16.2446 10.6169 16.2543 10.7932 16.2268C10.9696 16.1992 11.1375 16.1349 11.2852 16.0385C11.7172 15.7171 12.0341 15.2744 12.1919 14.7722C12.3497 14.2699 12.3406 13.7329 12.1657 13.2358L12.1824 13.2305Z" fill="#3A3B7B"/>
<path d="M18.3572 13.9044C18.2163 13.9335 18.0707 13.9352 17.929 13.9095C17.7874 13.8838 17.6525 13.8311 17.5324 13.7547C17.4273 13.6969 17.3368 13.6176 17.2675 13.5223C17.1982 13.4271 17.1517 13.3182 17.1315 13.2036C17.1112 13.0891 17.1177 12.9716 17.1504 12.8597C17.1831 12.7478 17.2413 12.6443 17.3207 12.5565C17.459 12.3802 17.6554 12.2539 17.8779 12.1982C18.459 12.0363 19.0572 11.9376 19.6613 11.904C19.794 11.8892 19.9284 11.9 20.0567 11.9357C20.1851 11.9715 20.3046 12.0315 20.4085 12.1122C20.5123 12.1929 20.5983 12.2927 20.6614 12.4058C20.7244 12.5188 20.7633 12.6428 20.7758 12.7705C20.95 13.3976 20.969 14.0552 20.8315 14.6907C20.33 16.7446 18.6024 17.4506 16.663 16.7927C16.1187 16.6168 15.6413 16.2891 15.2921 15.8513C14.8264 15.3242 14.4961 14.6995 14.328 14.0274C14.1918 13.429 14.2067 12.808 14.3716 12.2162C14.5364 11.6244 14.8463 11.0791 15.2754 10.6257C15.6827 10.1329 16.2112 9.74503 16.8135 9.49709C17.1941 9.29576 17.6395 9.23851 18.0619 9.33663C18.1577 9.36208 18.2446 9.41168 18.3138 9.48027C18.3829 9.54886 18.4316 9.63395 18.4549 9.72672C18.4783 9.81948 18.4753 9.91655 18.4463 10.0078C18.4174 10.0991 18.3635 10.1813 18.2903 10.2459C18.1512 10.3668 18 10.4743 17.8389 10.5668C17.3435 10.8697 16.9123 11.2599 16.5683 11.7168C16.3428 12.0125 16.1875 12.352 16.1134 12.7115C16.0392 13.0709 16.048 13.4416 16.1392 13.7975C16.2656 14.2827 16.5461 14.7182 16.9417 15.0437C18.1677 16.1134 19.7615 15.0811 19.4829 13.6209C19.0761 13.7172 18.7194 13.8188 18.3572 13.9044Z" fill="#3A3B7B"/>
<path d="M25.8472 16.921C24.036 17.9908 21.974 16.921 21.5226 14.6746C21.1938 13.07 21.818 10.8235 24.0026 9.96775C24.4674 9.78958 24.9715 9.72703 25.4682 9.78589C26.065 9.89074 26.6125 10.1727 27.0334 10.5921C27.4543 11.0114 27.7275 11.547 27.8144 12.1233C28.1822 14.0327 27.3463 16.0706 25.8472 16.921ZM26.4769 13.3214C26.4764 12.877 26.3126 12.4471 26.0144 12.1072C25.855 11.897 25.6245 11.7464 25.3623 11.681C25.1001 11.6157 24.8224 11.6396 24.5765 11.7489C23.5957 12.1553 22.9047 13.6316 23.1555 14.7174C23.1747 14.8878 23.2323 15.0521 23.3245 15.1989C23.4167 15.3457 23.5412 15.4713 23.6894 15.5671C23.8374 15.6628 24.0055 15.7264 24.1819 15.7534C24.3582 15.7803 24.5386 15.7699 24.7103 15.7229C25.2287 15.5491 25.6776 15.2243 25.9943 14.7937C26.3111 14.3631 26.4798 13.8484 26.4769 13.3214Z" fill="#3A3B7B"/>
<path d="M29.6459 17.3704C29.6186 17.5661 29.5114 17.7435 29.3478 17.8633C29.1842 17.9832 28.9777 18.0358 28.7738 18.0095C28.5698 17.9833 28.3851 17.8804 28.2602 17.7234C28.1353 17.5664 28.0805 17.3682 28.1078 17.1725C28.1352 16.9767 28.2424 16.7994 28.406 16.6795C28.5695 16.5596 28.776 16.5071 28.98 16.5333C29.1839 16.5595 29.3687 16.6624 29.4936 16.8194C29.6185 16.9764 29.6733 17.1746 29.6459 17.3704ZM29.1611 10.155C29.2671 9.9996 29.4226 9.88129 29.6044 9.81767C29.7861 9.75405 29.9845 9.74854 30.1698 9.80195C30.3582 9.84719 30.5246 9.95317 30.6413 10.1022C30.758 10.2511 30.8177 10.4341 30.8107 10.6203C30.7861 10.919 30.7395 11.2157 30.6714 11.5082C30.4875 12.4977 30.3091 13.4872 30.1141 14.466C30.0249 14.8565 29.9079 15.2309 29.7797 15.6267C29.7351 15.7504 29.6606 15.8622 29.5624 15.953C29.5013 16.0212 29.4233 16.0736 29.3355 16.1052C29.2477 16.1368 29.1531 16.1467 29.0603 16.1339C28.9675 16.1211 28.8796 16.086 28.8047 16.032C28.7298 15.9779 28.6703 15.9066 28.6317 15.8246C28.5654 15.6775 28.5294 15.5195 28.5258 15.3593C28.5258 14.696 28.5258 14.0274 28.5704 13.3588C28.6461 12.4047 28.7951 11.4572 29.0162 10.524C29.0422 10.399 29.0913 10.2795 29.1611 10.171V10.155Z" fill="#3A3B7B"/>
<path fill-rule="evenodd" clip-rule="evenodd" d="M4.16231 21.6685C4.09651 21.8095 4.07847 21.9667 4.11062 22.1179C4.13201 22.3173 4.179 22.5134 4.2505 22.7018C4.33978 22.9325 4.43968 23.1606 4.56285 23.4417C4.59118 23.5064 4.62078 23.5739 4.65176 23.645C4.81787 24.0259 5.02629 24.5126 5.3043 25.2171C5.38299 25.4172 5.45287 25.619 5.52323 25.8221C5.55166 25.9042 5.58019 25.9865 5.60939 26.0691C5.71406 26.3625 5.89416 26.6261 6.13289 26.835C6.23426 26.9499 6.36872 27.0335 6.51949 27.0754C6.6732 27.118 6.83669 27.1153 6.98877 27.0676C7.14084 27.0199 7.27442 26.9293 7.37214 26.8077C7.46795 26.6884 7.52492 26.5448 7.536 26.3946C7.59816 26.1022 7.57694 25.799 7.47449 25.5171C7.3119 25.049 7.12668 24.5802 6.9131 24.1218L6.91212 24.1197C6.56076 23.4024 6.2036 22.69 5.82954 21.9774L5.82674 21.9724C5.71724 21.7867 5.57493 21.6207 5.40622 21.4819C5.29668 21.358 5.1456 21.2744 4.97875 21.2456C4.80835 21.2162 4.6326 21.2458 4.48289 21.3292C4.34126 21.4069 4.22899 21.5256 4.16231 21.6685Z" fill="#3A3B7B"/>
<path fill-rule="evenodd" clip-rule="evenodd" d="M9.52883 19.9021C8.97791 19.7652 8.40254 19.7452 7.84283 19.8437C7.4093 19.8846 6.98293 19.9806 6.68686 20.1707C6.53627 20.2675 6.41452 20.3917 6.3468 20.5496C6.27871 20.7084 6.27002 20.89 6.32582 21.0923C6.4277 21.4629 6.56001 21.8232 6.69186 22.1824L6.71321 22.2406L6.71373 22.2419C7.11071 23.2853 7.51147 24.3252 7.91587 25.3615C7.96303 25.5248 8.02972 25.6824 8.1146 25.831L8.11619 25.8337C8.22831 26.0183 8.37211 26.1834 8.54153 26.3221C8.62626 26.3984 8.73105 26.4511 8.84466 26.4747C8.9594 26.4985 9.07872 26.4916 9.18962 26.4547C9.30057 26.4179 9.39881 26.3525 9.47368 26.2657C9.54734 26.1803 9.59557 26.0775 9.61328 25.968C9.68638 25.6706 9.66296 25.3589 9.54612 25.0746C9.50967 24.979 9.48107 24.8812 9.45092 24.7783C9.44087 24.744 9.43069 24.7091 9.41994 24.6735C10.3456 24.3262 11.3306 23.8593 11.677 22.7729C11.8126 22.3975 11.8239 21.9909 11.7093 21.6091C11.5946 21.2268 11.3593 20.8879 11.0358 20.6392C10.5955 20.291 10.0812 20.0394 9.52883 19.9021ZM8.00173 21.2346C8.01996 21.2296 8.03832 21.2249 8.05674 21.2205C8.6594 21.1296 9.27599 21.2508 9.79298 21.5616C10.0208 21.7137 10.1142 21.8827 10.1302 22.0453C10.1467 22.2127 10.0833 22.3941 9.95591 22.5685C9.71517 22.8979 9.27585 23.1615 8.87901 23.2106C8.58972 22.5712 8.29593 21.9059 8.00173 21.2346Z" fill="#3A3B7B"/>
<path d="M13.2018 18.7316C13.8578 18.4408 14.6705 18.3906 15.3065 18.595C15.4666 18.6398 15.6056 18.7367 15.6996 18.869C15.793 19.0006 15.836 19.1591 15.8217 19.3175C15.8207 19.4204 15.7944 19.5216 15.7449 19.6129C15.6945 19.7058 15.6216 19.7857 15.5322 19.8459C15.4429 19.9061 15.3397 19.9448 15.2315 19.9586C15.1233 19.9724 15.0132 19.961 14.9105 19.9254L14.9027 19.9227L14.8954 19.919C14.8429 19.8926 14.7871 19.8727 14.7293 19.8598L14.7257 19.859C14.2783 19.745 13.8564 19.9339 13.7022 20.1661C13.6287 20.2768 13.6196 20.3886 13.6808 20.4902C13.7464 20.5991 13.9072 20.7213 14.2326 20.8084C14.3221 20.8319 14.4139 20.8547 14.5069 20.8778C14.7642 20.9418 15.0317 21.0082 15.2903 21.1003L15.2912 21.1006C16.4842 21.5363 16.9285 22.4386 16.7764 23.2872C16.6259 24.1264 15.8957 24.8902 14.7975 25.0704C14.3979 25.1554 13.9821 25.1388 13.5911 25.0223C13.1992 24.9055 12.8459 24.6923 12.5664 24.4038L12.5591 24.3963C12.4709 24.2876 12.4115 24.1599 12.3852 24.0244C12.361 23.9022 12.3737 23.7758 12.4219 23.6603C12.4697 23.5454 12.5507 23.446 12.6551 23.3735C12.7655 23.2914 12.8985 23.2421 13.0377 23.2319C13.1765 23.2216 13.3153 23.2506 13.4372 23.3151C13.5589 23.3715 13.6721 23.4435 13.7737 23.5291L13.7756 23.5307C13.9553 23.6884 14.1728 23.7295 14.3813 23.6915C14.5929 23.6528 14.7919 23.5327 14.9198 23.3733C15.047 23.2148 15.098 23.0267 15.0374 22.844C14.9765 22.66 14.7932 22.4538 14.3906 22.2814C14.2853 22.2385 14.1762 22.2039 14.0627 22.1703C14.0321 22.1612 14.001 22.1521 13.9695 22.143C13.8855 22.1185 13.7991 22.0933 13.7145 22.0656C13.6561 22.0465 13.5983 22.0284 13.541 22.0105C13.3844 21.9615 13.2317 21.9138 13.0847 21.8498C12.7649 21.7453 12.4886 21.5446 12.297 21.2775C12.1045 21.0093 12.0077 20.6886 12.0208 20.3632C12.0219 19.5703 12.5422 19.024 13.2018 18.7316Z" fill="#3A3B7B"/>
<path d="M21.5196 18.6472C21.3923 18.5875 21.2517 18.5592 21.1102 18.5648C20.9688 18.5704 20.831 18.6096 20.7093 18.6791C20.5884 18.7481 20.4872 18.8448 20.4147 18.9604C20.3482 19.0578 20.3021 19.1667 20.2792 19.2811C20.2562 19.3954 20.2568 19.5128 20.2808 19.6268C20.3045 19.7734 20.3307 19.9159 20.3567 20.0564C20.3996 20.2889 20.4414 20.5163 20.469 20.748L20.47 20.7539C20.5328 21.1174 20.5656 21.485 20.5686 21.8534L20.5689 21.8586C20.5903 22.2565 20.4491 22.6466 20.1754 22.9461L20.1711 22.9515C20.082 23.061 19.963 23.1446 19.8272 23.1929C19.6915 23.2412 19.5445 23.2523 19.4026 23.2249C19.2606 23.1976 19.1294 23.1329 19.0236 23.0381C18.9178 22.9433 18.8415 22.8217 18.8034 22.6877C18.7221 22.4052 18.675 22.1147 18.663 21.8219L18.8019 19.6995C18.804 19.6717 18.8063 19.6433 18.8087 19.6146C18.814 19.5501 18.8194 19.4845 18.8217 19.4232C18.8249 19.3331 18.8221 19.2405 18.8003 19.1527C18.7779 19.0631 18.7353 18.9778 18.6598 18.9052C18.585 18.8333 18.484 18.7803 18.357 18.7442C18.1273 18.6803 17.9331 18.6824 17.7712 18.7483C17.6093 18.8142 17.4983 18.9366 17.4198 19.078C17.3419 19.2182 17.2919 19.3842 17.254 19.5504C17.2259 19.6738 17.2033 19.8033 17.1819 19.9266C17.1745 19.9691 17.1672 20.0108 17.1599 20.0513L17.1597 20.0525C17.0449 20.7285 17.0107 21.4149 17.0578 22.0984C17.0666 22.4678 17.1469 22.8324 17.2946 23.1736C17.4612 23.6138 17.763 23.9952 18.1601 24.2675C18.558 24.5403 19.0329 24.6907 19.5219 24.6986C20.0108 24.7065 20.4908 24.5717 20.8981 24.312C21.3048 24.0527 21.62 23.681 21.802 23.2461C22.0566 22.6921 22.1761 22.0897 22.1514 21.4846C22.1365 21.0429 22.1114 20.5978 22.0865 20.155C22.0743 19.9377 22.0621 19.721 22.0511 19.5055C22.0456 19.2895 21.9714 19.0802 21.8384 18.9059C21.7561 18.7956 21.6465 18.7067 21.5196 18.6472Z" fill="#3A3B7B"/>
<path d="M26.0222 21.9752C26.0093 21.9909 25.9957 22.0072 25.9815 22.0241C25.878 21.4512 25.7821 20.8785 25.6861 20.3049C25.6516 20.0991 25.617 19.8924 25.5822 19.6863L25.5782 19.6633L25.5655 19.6435C25.5415 19.6061 25.5392 19.5694 25.5392 19.4913V19.4822L25.5377 19.4733C25.5117 19.3118 25.4356 19.1616 25.3194 19.0422C25.2035 18.9232 25.053 18.8403 24.8874 18.8043C24.7221 18.7652 24.5484 18.7738 24.3881 18.8292C24.2283 18.8843 24.0889 18.9835 23.9875 19.1143C23.9032 19.2146 23.8341 19.3259 23.7823 19.4448C23.6648 19.701 23.5462 19.9578 23.4273 20.2153L23.4252 20.2198C23.1284 20.8627 22.8296 21.5099 22.5395 22.1621L22.5386 22.1643C22.3605 22.5872 22.2134 23.0328 22.0669 23.4771C22.0376 23.5658 22.0084 23.6544 21.9789 23.7428C21.926 23.883 21.9029 24.032 21.9108 24.1808C21.9012 24.3141 21.9344 24.4471 22.0061 24.5617C22.0792 24.6787 22.1887 24.7707 22.3191 24.8249C22.4574 24.8831 22.6119 24.8954 22.7584 24.86C22.9045 24.8246 23.0342 24.7437 23.1272 24.6299C23.2459 24.4898 23.348 24.3369 23.4313 24.175C23.6771 23.6924 23.912 23.204 24.1458 22.7177C24.2363 22.5296 24.3242 22.3612 24.4242 22.1777C24.4311 22.2003 24.4381 22.2224 24.4453 22.2445C24.5501 22.6874 24.7271 23.1117 24.9696 23.5018C25.0155 23.5844 25.0794 23.6566 25.157 23.7134C25.2355 23.771 25.3261 23.8113 25.4226 23.8318C25.519 23.8524 25.6189 23.8524 25.7154 23.8321C25.8117 23.8118 25.9026 23.7714 25.9811 23.7142L26.1366 23.6025L27.3435 22.6268L27.2721 23.0633C27.1742 23.6633 27.077 24.2584 26.9737 24.8535C26.9061 25.1173 26.9062 25.3929 26.974 25.6566C27.0033 25.805 27.0781 25.9416 27.1888 26.0491C27.3004 26.1574 27.4433 26.231 27.599 26.2603C27.7547 26.2896 27.9161 26.2734 28.062 26.2136C28.2059 26.1548 28.3282 26.0563 28.4138 25.9308C28.6128 25.6939 28.7366 25.407 28.7706 25.1043C28.8219 24.677 28.8797 24.2437 28.9376 23.8106C29.0043 23.3115 29.071 22.8124 29.1273 22.3229L29.1275 22.3214C29.1817 21.7856 29.2079 21.2476 29.2061 20.7093C29.218 20.5392 29.1739 20.3697 29.0798 20.2249C28.9855 20.0795 28.8457 19.9665 28.6806 19.9019C28.5088 19.8269 28.3165 19.8069 28.1319 19.8448C27.9486 19.8824 27.7826 19.9752 27.6581 20.1095C27.4355 20.3071 27.2267 20.5186 27.0329 20.7425L27.0316 20.744C26.8202 20.9969 26.6101 21.2548 26.4014 21.511C26.2746 21.6668 26.148 21.8222 26.0222 21.9752Z" fill="#3A3B7B"/>
</g>
<defs>
<clipPath id="clip0_3_997">
<rect width="32.7153" height="20.186" fill="white" transform="translate(1.1604 6.91949)"/>
</clipPath>
</defs>
</svg>
