<svg width="46" height="40" viewBox="0 0 46 40" fill="none" xmlns="http://www.w3.org/2000/svg">
<path d="M45.9186 26.5832C45.9186 33.5029 40.309 39.1124 33.3893 39.1124L14.5955 39.1124C12.6733 39.1124 11.1151 37.5542 11.1151 35.6321L11.1151 11.9657C11.1151 8.12143 14.2315 5.00502 18.0758 5.00502L42.4382 5.00502C44.3604 5.00502 45.9186 6.56323 45.9186 8.48537L45.9186 26.5832Z" fill="#E8F5E9"/>
<path d="M17.3728 7.09326C14.8869 7.09326 12.8632 9.13545 12.8632 11.6319C12.8632 13.2111 13.6742 14.6056 14.8988 15.4184C13.4197 15.9129 12.1399 16.8372 11.2013 18.0464C10.6823 17.6472 10.1024 17.3262 9.47729 17.0961C10.4252 16.3924 11.0447 15.2619 11.0447 13.9913C11.0447 11.874 9.33233 10.1408 7.22789 10.1408C5.12346 10.1408 3.41107 11.874 3.41107 13.9913C3.41107 15.2626 4.03106 16.3936 4.97981 17.0974C2.46799 18.0243 0.674072 20.451 0.674072 23.307V25.3132C0.674329 25.4661 0.735505 25.6126 0.843975 25.7203C0.952444 25.8283 1.09922 25.8884 1.25216 25.8879H10.0539C10.0753 25.8902 10.0966 25.8915 10.1179 25.8913H24.6281C24.6494 25.8915 24.671 25.8902 24.6921 25.8879H33.4945C33.8109 25.8866 34.0672 25.6299 34.068 25.3132V23.307C34.068 20.451 32.2772 18.0243 29.7667 17.0971C30.7154 16.3936 31.3354 15.2623 31.3354 13.991C31.3354 11.8738 29.623 10.1405 27.5186 10.1405C25.4142 10.1405 23.7017 11.8738 23.7017 13.991C23.7017 15.2616 24.3215 16.3923 25.2694 17.0959C24.643 17.3264 24.0629 17.6485 23.5432 18.0487C22.605 16.8388 21.3269 15.9132 19.8479 15.4184C21.0722 14.6056 21.8835 13.2111 21.8835 11.6319C21.8835 9.13545 19.8587 7.09326 17.3729 7.09326H17.3728ZM17.3728 8.24481C19.232 8.24481 20.7307 9.75367 20.7307 11.6319C20.7307 13.4954 19.2553 14.9896 17.4167 15.0135C17.4021 15.0135 17.3877 15.0115 17.3728 15.0115C17.3579 15.0115 17.3437 15.0135 17.3288 15.0135C15.4902 14.9899 14.0158 13.4955 14.0158 11.6319C14.0158 9.7534 15.5133 8.24481 17.3725 8.24481H17.3728ZM7.22796 11.2923C8.70312 11.2923 9.89323 12.4895 9.89323 13.9912C9.89323 15.4828 8.71852 16.675 7.25724 16.6912C7.24747 16.6912 7.23796 16.6902 7.22794 16.6902C7.21817 16.6902 7.20866 16.6912 7.19864 16.6912C5.73735 16.675 4.56264 15.4826 4.56264 13.9912C4.56264 12.4896 5.75275 11.2923 7.22792 11.2923H7.22796ZM27.5182 11.2923C28.9934 11.2923 30.1835 12.4895 30.1835 13.9912C30.1835 15.4828 29.0088 16.675 27.5475 16.6912C27.5377 16.6912 27.5282 16.6902 27.5182 16.6902C27.5084 16.6902 27.4989 16.6912 27.4889 16.6912C26.0276 16.675 24.8529 15.4826 24.8529 13.9912C24.8529 12.4896 26.043 11.2923 27.5182 11.2923H27.5182ZM17.3287 16.165C17.3433 16.1653 17.3577 16.1671 17.3726 16.1671C17.3873 16.1671 17.4017 16.165 17.4166 16.165C21.1038 16.1887 24.0548 19.165 24.0548 22.8907L24.0545 24.7394H10.6913V22.8907C10.6913 19.1646 13.6414 16.1887 17.3282 16.165H17.3287ZM7.18387 17.844C7.19852 17.8443 7.21292 17.8461 7.22782 17.8461C7.24273 17.8461 7.25687 17.844 7.27178 17.844C8.51894 17.8541 9.65713 18.2841 10.5634 19.0036C9.91491 20.151 9.53987 21.4755 9.53987 22.891V24.7353H1.82516V23.3069C1.82516 20.2789 4.2059 17.8677 7.18373 17.8438L7.18387 17.844ZM27.4741 17.844C27.489 17.8443 27.5032 17.8461 27.5181 17.8461C27.533 17.8461 27.5471 17.844 27.562 17.844C30.5399 17.8677 32.9206 20.2793 32.9206 23.3072V24.7353H25.202L25.2017 22.891C25.2017 21.4763 24.8277 20.1528 24.1805 19.0056C25.087 18.2851 26.226 17.854 27.4742 17.844H27.4741Z" fill="#103E13"/>
</svg>
