<svg width="46" height="40" viewBox="0 0 46 40" fill="none" xmlns="http://www.w3.org/2000/svg">
<path d="M45.6658 26.5832C45.6658 33.5029 40.0562 39.1124 33.1365 39.1124L14.3426 39.1124C12.4205 39.1124 10.8623 37.5542 10.8623 35.6321L10.8623 11.9657C10.8623 8.12143 13.9787 5.00502 17.823 5.00502L42.1854 5.00502C44.1076 5.00502 45.6658 6.56323 45.6658 8.48537L45.6658 26.5832Z" fill="#E8F5E9"/>
<path d="M20.1282 16.5909C19.9605 16.5909 19.8049 16.5448 19.6667 16.4707V16.4727C19.6667 16.7364 19.5642 16.984 19.3782 17.1695C19.1923 17.3555 18.9448 17.458 18.6814 17.458C18.5113 17.458 18.3537 17.4107 18.214 17.3346C18.1999 17.5759 18.1035 17.8014 17.9315 17.9736C17.7455 18.1595 17.498 18.262 17.2345 18.262C16.7108 18.262 16.2856 17.8504 16.2549 17.3345C16.0929 17.422 15.9097 17.468 15.7208 17.4558C15.2057 17.422 14.8023 16.977 14.8023 16.4423V12.0107L14.2977 12.8849C14.1055 13.2193 13.7457 13.4269 13.3583 13.4269C13.1696 13.4269 12.9831 13.3774 12.818 13.2828C12.6123 13.1636 12.4652 12.9722 12.404 12.7432C12.3425 12.5141 12.3744 12.2745 12.4932 12.0692C12.4934 12.0692 14.1443 9.21031 14.245 9.0347C14.257 9.0083 14.2911 8.93171 14.3201 8.86644C14.3479 8.80412 14.3716 8.74017 14.3944 8.67588C14.8923 7.27032 16.1251 6.39722 17.6118 6.39722C19.5425 6.39722 21.1132 8.10043 21.1132 10.194L21.1134 15.6055C21.1134 15.8689 21.011 16.1163 20.8252 16.3025C20.6393 16.4884 20.3918 16.5909 20.1281 16.5909L20.1282 16.5909ZM17.6118 6.92076C16.3343 6.92076 15.3161 7.64235 14.8879 8.85097C14.8605 8.92772 14.832 9.00447 14.7987 9.07925C14.7021 9.29589 14.7021 9.29589 14.6749 9.32704L14.6713 9.32393C14.5365 9.57828 14.136 10.2718 12.9466 12.3312C12.8977 12.4157 12.8847 12.5138 12.9097 12.6076C12.9349 12.7014 12.9954 12.7804 13.0792 12.8288C13.3393 12.9782 13.6955 12.8817 13.8438 12.6235L14.8374 10.9032C14.8968 10.8007 15.0168 10.7503 15.1319 10.7815C15.2464 10.8121 15.3259 10.916 15.3259 11.0344V16.4425C15.3259 16.6977 15.5185 16.9179 15.7551 16.9335C15.8916 16.9407 16.0188 16.8949 16.1144 16.7995C16.2013 16.7126 16.2492 16.5968 16.2492 16.473V12.936C16.2492 12.7913 16.3665 12.6741 16.5111 12.6741C16.6558 12.6741 16.773 12.7912 16.773 12.936L16.7729 17.2769C16.7729 17.5315 16.98 17.7386 17.2345 17.7386C17.3581 17.7386 17.4742 17.6907 17.5613 17.6038C17.6482 17.5167 17.6961 17.4006 17.6961 17.2769V12.936C17.6961 12.7913 17.8132 12.6741 17.958 12.6741C18.1027 12.6741 18.2199 12.7912 18.2199 12.936L18.2198 16.4323V16.473C18.2198 16.7273 18.4269 16.9344 18.6816 16.9344C18.8051 16.9344 18.9208 16.8864 19.0084 16.7991C19.0953 16.7124 19.1432 16.5966 19.1432 16.4728V12.9358C19.1432 12.7912 19.2603 12.6739 19.4051 12.6739C19.5497 12.6739 19.667 12.791 19.667 12.9358L19.6667 15.6056C19.6667 15.8603 19.8738 16.0674 20.1281 16.0674C20.2519 16.0674 20.3677 16.0194 20.4546 15.9326C20.5419 15.8454 20.5896 15.7293 20.5896 15.6056L20.5898 10.1941C20.5898 8.38939 19.2539 6.92082 17.6118 6.92082L17.6118 6.92076Z" fill="#103E13"/>
<path d="M9.83847 20.352L13.6388 18.0722C14.097 17.797 14.6866 17.9139 14.9804 18.3385C15.0877 18.4932 15.1425 18.6734 15.151 18.8569C15.2927 18.7829 15.4468 18.7428 15.6038 18.7428C15.6841 18.7428 15.7648 18.7528 15.8445 18.7726C16.0998 18.8364 16.315 18.996 16.4503 19.2216C16.5858 19.4476 16.6253 19.7124 16.5615 19.9675C16.5026 20.2034 16.3591 20.4021 16.1595 20.5383C16.2991 20.6207 16.4195 20.733 16.5051 20.876C16.6405 21.102 16.6801 21.3667 16.6164 21.622C16.5526 21.877 16.3931 22.0922 16.1671 22.2278L16.1658 22.2286C16.3029 22.3108 16.4211 22.422 16.5057 22.5629C16.6414 22.7888 16.6809 23.0537 16.6171 23.309C16.5531 23.5642 16.3936 23.7793 16.1679 23.9148L11.5276 26.6986C10.6616 27.218 9.66041 27.3972 8.70892 27.2029C7.74892 27.0067 6.95386 26.4549 6.47044 25.649C5.7054 24.374 5.82005 22.8676 6.76907 21.7178C6.81253 21.6653 6.85533 21.6119 6.8942 21.5564C6.93536 21.4979 6.98341 21.429 6.99981 21.4054C7.09804 21.2299 8.70092 18.342 8.70075 18.3423C8.86262 18.0503 9.166 17.8849 9.47889 17.8851C9.62485 17.8851 9.77293 17.921 9.90954 17.9968C10.0745 18.089 10.2131 18.2233 10.31 18.3851C10.5093 18.7172 10.5163 19.1328 10.3287 19.4691L9.83847 20.352ZM9.86126 18.6543C9.81042 18.5696 9.74056 18.502 9.65512 18.4541C9.4785 18.3564 9.25613 18.42 9.15889 18.596C8.01194 20.6623 7.62096 21.3665 7.47008 21.617L7.47352 21.6179C7.4609 21.6598 7.4609 21.6598 7.32282 21.8571C7.27591 21.9239 7.22491 21.988 7.17293 22.0511C6.35688 23.0398 6.26213 24.2841 6.91923 25.3797C7.32626 26.0583 7.99897 26.5235 8.8135 26.6898C9.6369 26.8572 10.5048 26.7015 11.258 26.2495L15.8987 23.4656C16.0046 23.4021 16.0794 23.3013 16.1093 23.1817C16.1391 23.0623 16.1206 22.9382 16.0569 22.8323C15.9261 22.6141 15.6419 22.5425 15.4238 22.6738L13.1344 24.0473C13.0105 24.1217 12.8494 24.0817 12.7751 23.9576C12.7007 23.8336 12.7409 23.6727 12.8648 23.5983L15.1543 22.2248L15.8979 21.7788C16.0038 21.7151 16.0788 21.6143 16.1086 21.4951C16.1385 21.3755 16.1199 21.2512 16.0563 21.1454C15.9253 20.9272 15.6411 20.8561 15.4231 20.987L12.3901 22.8065C12.2658 22.8811 12.1052 22.8408 12.0308 22.7168C11.9563 22.5928 11.9967 22.432 12.1205 22.3575L15.8429 20.1244C15.9489 20.0608 16.0237 19.9601 16.0535 19.8406C16.0834 19.7212 16.0648 19.597 16.0014 19.4911C15.9379 19.3853 15.837 19.3105 15.7175 19.2807C15.5973 19.2509 15.4736 19.2694 15.368 19.3327L14.6789 19.7461C14.6788 19.7461 14.6788 19.7463 14.6786 19.7463H14.6784L11.6456 21.5658C11.5213 21.6406 11.3605 21.6002 11.2863 21.4761C11.2118 21.3521 11.2521 21.1912 11.376 21.1168L14.409 19.2973C14.5149 19.2336 14.5899 19.1328 14.6197 19.0136C14.6525 18.8827 14.6276 18.7489 14.5499 18.6367C14.4151 18.4417 14.1268 18.3899 13.9082 18.5213L9.27083 21.3032C9.16932 21.3639 9.03927 21.3492 8.95416 21.267C8.86889 21.1847 8.8497 21.0553 8.90709 20.9518L9.87138 19.2145C9.96814 19.0408 9.96436 18.8263 9.86121 18.6544L9.86126 18.6543Z" fill="#103E13"/>
<path d="M27.9983 25.6489C27.515 26.4549 26.7201 27.0066 25.76 27.2027C24.8083 27.3967 23.8075 27.2178 22.9412 26.6984L18.3005 23.9145C18.0747 23.7791 17.915 23.5639 17.851 23.3084C17.7876 23.0534 17.8273 22.7885 17.9626 22.5629C18.047 22.4218 18.1654 22.3106 18.3027 22.2285L18.3014 22.2277C18.0755 22.0922 17.9158 21.877 17.8522 21.6219C17.7882 21.3667 17.8279 21.1017 17.9634 20.8757C18.0506 20.7306 18.1702 20.6171 18.3066 20.5366C18.1085 20.4003 17.9658 20.2024 17.9071 19.9675C17.8432 19.7122 17.8829 19.4473 18.0183 19.2217C18.1536 18.9958 18.3689 18.8363 18.6241 18.7725C18.7038 18.7525 18.7847 18.7426 18.8647 18.7426C19.0218 18.7428 19.176 18.7827 19.3176 18.8568C19.3263 18.6733 19.3809 18.493 19.4882 18.3384C19.7822 17.9142 20.3713 17.7967 20.8302 18.0721L24.6304 20.3516L24.1405 19.4693C23.9526 19.1324 23.9595 18.7169 24.1587 18.3846C24.2558 18.2229 24.3945 18.0886 24.5603 17.9956C24.6966 17.9202 24.8442 17.8844 24.9898 17.8844C25.3026 17.8846 25.6063 18.0496 25.768 18.3417C26.3314 19.357 27.3948 21.2717 27.4695 21.4054C27.4854 21.4285 27.5335 21.4974 27.5747 21.5559C27.6138 21.6115 27.6562 21.6647 27.6999 21.7175C28.6488 22.8677 28.7633 24.374 27.9983 25.6489L27.9983 25.6489ZM27.2959 22.0512C27.2438 21.9881 27.1926 21.9236 27.146 21.8572C27.0043 21.6562 27.0007 21.6509 26.9901 21.5983C26.8244 21.3242 26.4204 20.5968 25.3097 18.5957C25.2122 18.4201 24.9909 18.356 24.8146 18.4534C24.7278 18.5019 24.6581 18.5696 24.6073 18.6544C24.5043 18.8261 24.5004 19.0406 24.5976 19.2148L25.5616 20.9516C25.6191 21.0553 25.5999 21.1845 25.5148 21.2668C25.4299 21.3493 25.3 21.3638 25.198 21.3031L20.5606 18.5211C20.342 18.3901 20.0539 18.4414 19.9188 18.6365C19.841 18.7487 19.8163 18.8825 19.8487 19.0132C19.8786 19.1326 19.9535 19.2333 20.0596 19.2969C20.06 19.2971 20.0601 19.2974 20.0605 19.2976L23.0925 21.1166C23.2165 21.1911 23.2567 21.3518 23.1822 21.4759C23.1078 21.5997 22.9472 21.6402 22.8229 21.5656L19.1005 19.3325C18.9948 19.2692 18.8705 19.2505 18.7512 19.2806C18.6314 19.3104 18.5308 19.3852 18.4673 19.4913C18.4037 19.5971 18.3853 19.7212 18.4148 19.8406C18.4447 19.96 18.5196 20.0608 18.6255 20.1245L19.3499 20.5589L22.3478 22.3576C22.4718 22.432 22.512 22.5927 22.4375 22.7169C22.3631 22.8407 22.2025 22.881 22.0782 22.8066L19.0455 20.9871C18.8274 20.8559 18.5434 20.9271 18.4122 21.1455C18.3486 21.2514 18.3302 21.3756 18.3597 21.495C18.3896 21.6143 18.4645 21.715 18.5706 21.7788L19.3141 22.2249L21.6033 23.5983C21.7273 23.6728 21.7675 23.8335 21.693 23.9576C21.6186 24.0815 21.458 24.1221 21.3337 24.0473L19.0445 22.6739C18.9389 22.6106 18.8151 22.5919 18.6951 22.6219C18.5757 22.6518 18.4747 22.7265 18.4112 22.8323C18.3477 22.9383 18.3292 23.0626 18.3587 23.1818C18.3886 23.3012 18.4635 23.4019 18.5696 23.4657L23.2103 26.2496C23.9634 26.7014 24.8319 26.8578 25.6548 26.6899C26.4692 26.5236 27.1419 26.0583 27.5489 25.3797C28.2067 24.2839 28.1121 23.0396 27.2962 22.0512L27.2959 22.0512Z" fill="#103E13"/>
</svg>
