<svg width="100%" height="100%" id="svg" viewBox="0 0 1440 490" xmlns="http://www.w3.org/2000/svg" class="transition duration-300 ease-in-out delay-150"><defs><linearGradient id="gradient" x1="50%" y1="100%" x2="50%" y2="0%"><stop offset="5%" stop-color="#39843b"></stop><stop offset="95%" stop-color="#85ab86"></stop></linearGradient></defs><path d="M 0,500 L 0,125 C 138,105.8 276,86.6 433,117 C 590,147.4 766,227.39999999999998 937,262 C 1108,296.6 1274,285.8 1440,275 L 1440,500 L 0,500 Z" stroke="none" stroke-width="0" fill="url(#gradient)" fill-opacity="0.53" class="transition-all duration-300 ease-in-out delay-150 path-0"></path><defs><linearGradient id="gradient" x1="50%" y1="100%" x2="50%" y2="0%"><stop offset="5%" stop-color="#39843b"></stop><stop offset="95%" stop-color="#85ab86"></stop></linearGradient></defs><path d="M 0,500 L 0,291 C 194.53333333333336,286.8666666666667 389.0666666666667,282.7333333333333 555,302 C 720.9333333333333,321.2666666666667 858.2666666666667,363.9333333333334 1001,391 C 1143.7333333333333,418.0666666666666 1291.8666666666668,429.5333333333333 1440,441 L 1440,500 L 0,500 Z" stroke="none" stroke-width="0" fill="url(#gradient)" fill-opacity="1" class="transition-all duration-300 ease-in-out delay-150 path-1"></path></svg>